<svg xmlns="http://www.w3.org/2000/svg" xmlns:xlink="http://www.w3.org/1999/xlink" width="493" zoomAndPan="magnify" viewBox="0 0 369.75 79.499998" height="106" preserveAspectRatio="xMidYMid meet" version="1.0"><defs><g/></defs><g fill="#94a0cf" fill-opacity="1"><g transform="translate(135.761619, 52.827513)"><g><path d="M 64.984375 -30.46875 C 64.785156 -30.425781 64.601562 -30.429688 64.4375 -30.484375 C 64.28125 -30.546875 64.128906 -30.617188 63.984375 -30.703125 C 63.910156 -30.734375 63.851562 -30.769531 63.8125 -30.8125 C 61.832031 -31.875 59.734375 -32.675781 57.515625 -33.21875 C 51.742188 -34.59375 45.859375 -34.019531 39.859375 -31.5 C 37.671875 -30.570312 35.570312 -29.457031 33.5625 -28.15625 C 31.5625 -26.863281 29.609375 -25.445312 27.703125 -23.90625 C 24.628906 -21.414062 21.796875 -18.6875 19.203125 -15.71875 C 16.617188 -12.757812 14.234375 -9.597656 12.046875 -6.234375 C 11.253906 -5.046875 10.492188 -3.835938 9.765625 -2.609375 C 9.753906 -2.566406 9.734375 -2.53125 9.703125 -2.5 C 9.148438 -1.632812 8.695312 -0.710938 8.34375 0.265625 C 8.164062 0.722656 7.953125 1.160156 7.703125 1.578125 C 7.390625 2.117188 6.960938 2.320312 6.421875 2.1875 C 6.109375 2.113281 5.976562 1.914062 6.03125 1.59375 C 6.0625 1.351562 6.132812 1.125 6.25 0.90625 C 6.832031 -0.238281 7.347656 -1.398438 7.796875 -2.578125 C 8.242188 -3.753906 8.660156 -4.941406 9.046875 -6.140625 C 9.148438 -6.441406 9.253906 -6.738281 9.359375 -7.03125 C 11.691406 -13.875 13.859375 -20.765625 15.859375 -27.703125 C 15.898438 -27.859375 15.925781 -28.007812 15.9375 -28.15625 C 15.9375 -28.226562 15.945312 -28.304688 15.96875 -28.390625 C 15.78125 -28.378906 15.632812 -28.320312 15.53125 -28.21875 C 15.425781 -28.113281 15.34375 -27.992188 15.28125 -27.859375 C 15.257812 -27.804688 15.226562 -27.753906 15.1875 -27.703125 C 15.070312 -27.535156 14.96875 -27.351562 14.875 -27.15625 C 13.738281 -25.382812 12.609375 -23.601562 11.484375 -21.8125 C 9.722656 -18.945312 7.960938 -16.078125 6.203125 -13.203125 C 3.660156 -9.054688 1.097656 -4.898438 -1.484375 -0.734375 C -2.046875 0.191406 -2.640625 1.085938 -3.265625 1.953125 C -3.421875 2.179688 -3.566406 2.394531 -3.703125 2.59375 C -3.941406 2.988281 -4.273438 3.226562 -4.703125 3.3125 C -4.828125 3.332031 -4.9375 3.328125 -5.03125 3.296875 C -5.132812 3.273438 -5.203125 3.210938 -5.234375 3.109375 C -5.273438 3.035156 -5.273438 2.953125 -5.234375 2.859375 C -5.203125 2.765625 -5.160156 2.6875 -5.109375 2.625 C 1.035156 -7.4375 7.195312 -17.484375 13.375 -27.515625 C 13.945312 -28.410156 14.546875 -29.285156 15.171875 -30.140625 C 15.304688 -30.328125 15.429688 -30.515625 15.546875 -30.703125 C 15.910156 -31.234375 16.382812 -31.570312 16.96875 -31.71875 C 17.320312 -31.789062 17.597656 -31.738281 17.796875 -31.5625 C 18.003906 -31.394531 18.101562 -31.125 18.09375 -30.75 C 17.988281 -29.632812 17.765625 -28.535156 17.421875 -27.453125 C 15.734375 -21.609375 13.921875 -15.800781 11.984375 -10.03125 C 11.972656 -9.96875 11.953125 -9.90625 11.921875 -9.84375 C 11.847656 -9.675781 11.796875 -9.503906 11.765625 -9.328125 C 11.742188 -9.160156 11.785156 -8.976562 11.890625 -8.78125 C 12.023438 -8.96875 12.164062 -9.144531 12.3125 -9.3125 C 12.59375 -9.664062 12.863281 -10.023438 13.125 -10.390625 C 16.164062 -14.691406 19.628906 -18.59375 23.515625 -22.09375 C 25.753906 -24.101562 28.070312 -25.957031 30.46875 -27.65625 C 32.875 -29.363281 35.398438 -30.820312 38.046875 -32.03125 C 43.515625 -34.476562 49.003906 -35.382812 54.515625 -34.75 C 57.992188 -34.320312 61.238281 -33.3125 64.25 -31.71875 C 64.3125 -31.6875 64.382812 -31.65625 64.46875 -31.625 C 64.625 -31.550781 64.769531 -31.472656 64.90625 -31.390625 C 65.039062 -31.304688 65.15625 -31.175781 65.25 -31 C 65.257812 -30.96875 65.265625 -30.921875 65.265625 -30.859375 C 65.265625 -30.804688 65.257812 -30.753906 65.25 -30.703125 C 65.21875 -30.648438 65.175781 -30.597656 65.125 -30.546875 C 65.082031 -30.503906 65.035156 -30.476562 64.984375 -30.46875 Z M 64.984375 -30.46875 "/></g></g><g transform="translate(152.647604, 52.827513)"><g><path d="M 1.84375 -2.765625 L 1.8125 -2.765625 C 0.6875 -2.773438 -0.0507812 -3.019531 -0.40625 -3.5 C -0.757812 -3.988281 -0.742188 -4.640625 -0.359375 -5.453125 C -0.0351562 -6.066406 0.375 -6.601562 0.875 -7.0625 C 1.039062 -7.207031 1.210938 -7.328125 1.390625 -7.421875 C 1.578125 -7.515625 1.78125 -7.5625 2 -7.5625 C 2.132812 -7.59375 2.285156 -7.570312 2.453125 -7.5 C 2.503906 -7.476562 2.5625 -7.457031 2.625 -7.4375 C 2.75 -7.457031 2.875 -7.5 3 -7.5625 C 3.03125 -7.59375 3.070312 -7.613281 3.125 -7.625 C 3.382812 -7.726562 3.660156 -7.769531 3.953125 -7.75 C 4.066406 -7.75 4.1875 -7.75 4.3125 -7.75 C 4.769531 -7.6875 5.113281 -7.492188 5.34375 -7.171875 C 5.570312 -6.859375 5.65625 -6.476562 5.59375 -6.03125 C 5.550781 -5.757812 5.460938 -5.503906 5.328125 -5.265625 C 4.441406 -3.660156 3.304688 -2.828125 1.921875 -2.765625 Z M 3.6875 -6.921875 C 3.070312 -6.953125 2.523438 -6.773438 2.046875 -6.390625 C 1.578125 -6.015625 1.222656 -5.582031 0.984375 -5.09375 C 0.753906 -4.601562 0.691406 -4.203125 0.796875 -3.890625 C 0.898438 -3.578125 1.222656 -3.488281 1.765625 -3.625 C 2.378906 -3.8125 2.921875 -4.160156 3.390625 -4.671875 C 3.859375 -5.191406 4.144531 -5.679688 4.25 -6.140625 C 4.351562 -6.597656 4.164062 -6.859375 3.6875 -6.921875 Z M 3.6875 -6.921875 "/></g></g><g transform="translate(158.831369, 52.827513)"><g><path d="M 5.640625 -5.90625 C 4.410156 -5.445312 3.523438 -5.070312 2.984375 -4.78125 C 2.585938 -4.59375 2.359375 -4.429688 2.296875 -4.296875 C 2.242188 -4.171875 2.289062 -3.9375 2.4375 -3.59375 C 2.4375 -3.582031 2.445312 -3.5625 2.46875 -3.53125 C 2.632812 -3.113281 2.734375 -2.6875 2.765625 -2.25 C 2.828125 -1.351562 2.070312 -0.726562 0.5 -0.375 C -1.070312 -0.0195312 -2.125 -0.0078125 -2.65625 -0.34375 C -3.1875 -0.675781 -3.347656 -1.097656 -3.140625 -1.609375 C -2.941406 -2.117188 -2.410156 -2.632812 -1.546875 -3.15625 C -0.679688 -3.6875 -0.109375 -4.066406 0.171875 -4.296875 C 0.460938 -4.535156 0.550781 -4.800781 0.4375 -5.09375 C 0.40625 -5.1875 0.363281 -5.285156 0.3125 -5.390625 C 0.207031 -5.628906 0.101562 -5.878906 0 -6.140625 C -0.195312 -6.597656 -0.28125 -7.050781 -0.25 -7.5 C -0.226562 -7.957031 -0.0664062 -8.335938 0.234375 -8.640625 C 0.546875 -8.953125 1.023438 -9.117188 1.671875 -9.140625 C 2.035156 -9.148438 2.359375 -9.097656 2.640625 -8.984375 C 2.929688 -8.878906 3.160156 -8.675781 3.328125 -8.375 C 3.472656 -8.164062 3.429688 -7.972656 3.203125 -7.796875 C 3.054688 -7.679688 2.894531 -7.664062 2.71875 -7.75 C 2.613281 -7.800781 2.507812 -7.867188 2.40625 -7.953125 C 2.40625 -7.972656 2.40625 -7.984375 2.40625 -7.984375 C 2.363281 -8.015625 2.320312 -8.046875 2.28125 -8.078125 C 2.238281 -8.148438 2.1875 -8.207031 2.125 -8.25 C 1.925781 -8.394531 1.722656 -8.4375 1.515625 -8.375 C 1.304688 -8.320312 1.15625 -8.164062 1.0625 -7.90625 C 0.988281 -7.707031 0.953125 -7.5 0.953125 -7.28125 C 0.972656 -7.03125 1.03125 -6.785156 1.125 -6.546875 C 1.195312 -6.398438 1.257812 -6.265625 1.3125 -6.140625 C 1.445312 -5.796875 1.554688 -5.554688 1.640625 -5.421875 C 1.722656 -5.296875 1.820312 -5.242188 1.9375 -5.265625 C 2.0625 -5.285156 3.164062 -5.679688 5.25 -6.453125 C 5.695312 -6.597656 5.828125 -6.414062 5.640625 -5.90625 Z M 0.59375 -1.453125 C 1.132812 -1.640625 1.363281 -2.003906 1.28125 -2.546875 C 1.28125 -2.585938 1.269531 -2.628906 1.25 -2.671875 C 1.21875 -2.972656 1.15625 -3.203125 1.0625 -3.359375 C 0.976562 -3.515625 0.769531 -3.507812 0.4375 -3.34375 C -0.363281 -2.882812 -1.109375 -2.347656 -1.796875 -1.734375 C -1.835938 -1.679688 -1.878906 -1.628906 -1.921875 -1.578125 C -1.921875 -1.578125 -1.925781 -1.566406 -1.9375 -1.546875 C -1.988281 -1.484375 -2 -1.410156 -1.96875 -1.328125 C -1.9375 -1.253906 -1.867188 -1.21875 -1.765625 -1.21875 C -0.960938 -1.09375 -0.175781 -1.171875 0.59375 -1.453125 Z M 0.59375 -1.453125 "/></g></g><g transform="translate(163.990328, 52.827513)"><g/></g><g transform="translate(172.794331, 52.827513)"><g><path d="M 7.421875 -9.796875 C 7.359375 -9.628906 7.273438 -9.46875 7.171875 -9.3125 C 5.910156 -7.257812 4.472656 -5.351562 2.859375 -3.59375 C 2.640625 -3.34375 2.40625 -3.113281 2.15625 -2.90625 C 1.914062 -2.738281 1.660156 -2.617188 1.390625 -2.546875 C 0.617188 -2.421875 0.171875 -2.726562 0.046875 -3.46875 C 0.015625 -3.9375 0.015625 -4.398438 0.046875 -4.859375 C 0.046875 -5.066406 0.046875 -5.269531 0.046875 -5.46875 C 0.046875 -5.46875 0.0546875 -5.46875 0.078125 -5.46875 C 0.078125 -5.613281 0.078125 -5.75 0.078125 -5.875 C 0.078125 -6.21875 0.078125 -6.5625 0.078125 -6.90625 C 0.078125 -7.09375 0.0859375 -7.28125 0.109375 -7.46875 C 0.191406 -7.894531 0.40625 -8.117188 0.75 -8.140625 C 1.113281 -8.117188 1.316406 -7.851562 1.359375 -7.34375 C 1.359375 -7.207031 1.347656 -7.082031 1.328125 -6.96875 C 1.304688 -6.84375 1.296875 -6.726562 1.296875 -6.625 C 1.265625 -5.875 1.242188 -5.113281 1.234375 -4.34375 C 1.234375 -4.175781 1.304688 -4.078125 1.453125 -4.046875 C 1.503906 -4.046875 1.550781 -4.054688 1.59375 -4.078125 C 1.644531 -4.097656 1.6875 -4.128906 1.71875 -4.171875 C 2.164062 -4.691406 2.601562 -5.21875 3.03125 -5.75 C 3.195312 -5.957031 3.367188 -6.164062 3.546875 -6.375 C 3.722656 -6.613281 3.90625 -6.84375 4.09375 -7.0625 C 4.832031 -7.976562 5.578125 -8.890625 6.328125 -9.796875 C 6.410156 -9.921875 6.503906 -10.023438 6.609375 -10.109375 C 6.722656 -10.191406 6.867188 -10.234375 7.046875 -10.234375 C 7.179688 -10.210938 7.300781 -10.160156 7.40625 -10.078125 C 7.4375 -10.046875 7.453125 -10.003906 7.453125 -9.953125 C 7.453125 -9.898438 7.441406 -9.847656 7.421875 -9.796875 Z M 7.421875 -9.796875 "/></g></g><g transform="translate(178.989741, 52.827513)"><g><path d="M 6.640625 -4.46875 C 6.191406 -4.03125 5.664062 -3.648438 5.0625 -3.328125 C 4.46875 -3.015625 3.96875 -2.8125 3.5625 -2.71875 C 3.15625 -2.625 2.738281 -2.566406 2.3125 -2.546875 C 1.632812 -2.515625 1.007812 -2.609375 0.4375 -2.828125 C -0.507812 -3.210938 -0.835938 -3.9375 -0.546875 -5 C -0.273438 -5.925781 0.273438 -6.648438 1.109375 -7.171875 C 1.941406 -7.691406 2.796875 -7.941406 3.671875 -7.921875 C 3.671875 -7.921875 3.679688 -7.921875 3.703125 -7.921875 C 3.929688 -7.941406 4.144531 -7.925781 4.34375 -7.875 C 4.6875 -7.757812 4.90625 -7.5625 5 -7.28125 C 5.09375 -7 5.03125 -6.6875 4.8125 -6.34375 C 4.3125 -5.59375 3.632812 -5.175781 2.78125 -5.09375 C 2.21875 -5.03125 1.671875 -5.054688 1.140625 -5.171875 C 1.035156 -5.179688 0.941406 -5.148438 0.859375 -5.078125 C 0.785156 -5.015625 0.742188 -4.929688 0.734375 -4.828125 C 0.578125 -4.160156 0.78125 -3.734375 1.34375 -3.546875 C 2.039062 -3.304688 2.769531 -3.304688 3.53125 -3.546875 C 4.394531 -3.816406 5.21875 -4.328125 6 -5.078125 C 6.789062 -5.835938 7.242188 -6.191406 7.359375 -6.140625 C 7.484375 -6.085938 7.519531 -5.941406 7.46875 -5.703125 C 7.363281 -5.328125 7.085938 -4.914062 6.640625 -4.46875 Z M 1.671875 -6.34375 C 1.628906 -6.289062 1.597656 -6.226562 1.578125 -6.15625 C 1.554688 -6.09375 1.582031 -6.035156 1.65625 -5.984375 C 1.925781 -5.828125 2.21875 -5.769531 2.53125 -5.8125 C 2.851562 -5.851562 3.125 -5.972656 3.34375 -6.171875 C 3.5625 -6.367188 3.65625 -6.613281 3.625 -6.90625 C 3.601562 -7.007812 3.550781 -7.070312 3.46875 -7.09375 C 3.382812 -7.125 3.300781 -7.128906 3.21875 -7.109375 C 2.644531 -7.015625 2.128906 -6.757812 1.671875 -6.34375 Z M 1.671875 -6.34375 "/></g></g><g transform="translate(185.767426, 52.827513)"><g><path d="M 12.171875 -5.828125 C 12.441406 -6.003906 12.65625 -6.046875 12.8125 -5.953125 C 12.96875 -5.867188 12.90625 -5.628906 12.625 -5.234375 C 12.289062 -4.773438 11.679688 -4.285156 10.796875 -3.765625 C 9.921875 -3.242188 9.144531 -3.015625 8.46875 -3.078125 C 7.789062 -3.148438 7.59375 -3.648438 7.875 -4.578125 C 8.15625 -5.515625 8.304688 -6.039062 8.328125 -6.15625 C 8.359375 -6.269531 8.335938 -6.332031 8.265625 -6.34375 C 8.203125 -6.363281 8.050781 -6.285156 7.8125 -6.109375 C 7.113281 -5.628906 6.429688 -5.125 5.765625 -4.59375 C 5.472656 -4.375 5.1875 -4.144531 4.90625 -3.90625 C 4.738281 -3.75 4.5625 -3.597656 4.375 -3.453125 C 4.375 -3.453125 4.367188 -3.441406 4.359375 -3.421875 C 4.148438 -3.222656 3.898438 -3.085938 3.609375 -3.015625 C 3.472656 -2.972656 3.332031 -2.957031 3.1875 -2.96875 C 3.039062 -2.976562 2.914062 -3.035156 2.8125 -3.140625 C 2.695312 -3.253906 2.65625 -3.375 2.6875 -3.5 C 2.71875 -3.632812 2.8125 -3.828125 2.96875 -4.078125 C 3.132812 -4.335938 3.316406 -4.617188 3.515625 -4.921875 C 3.710938 -5.234375 3.820312 -5.421875 3.84375 -5.484375 C 3.875 -5.554688 3.863281 -5.628906 3.8125 -5.703125 C 3.757812 -5.773438 3.703125 -5.796875 3.640625 -5.765625 C 3.578125 -5.742188 3.332031 -5.578125 2.90625 -5.265625 C 2.476562 -4.960938 1.894531 -4.535156 1.15625 -3.984375 C 0.8125 -3.722656 0.476562 -3.457031 0.15625 -3.1875 C 0.0625 -3.101562 -0.03125 -3.023438 -0.125 -2.953125 C -0.363281 -2.753906 -0.628906 -2.644531 -0.921875 -2.625 C -1.128906 -2.613281 -1.28125 -2.660156 -1.375 -2.765625 C -1.476562 -2.878906 -1.5 -3.03125 -1.4375 -3.21875 C -1.382812 -3.351562 -1.320312 -3.476562 -1.25 -3.59375 C -1.21875 -3.644531 -1.191406 -3.703125 -1.171875 -3.765625 C -0.554688 -5.003906 0.046875 -6.25 0.640625 -7.5 C 0.648438 -7.53125 0.664062 -7.570312 0.6875 -7.625 C 0.757812 -7.757812 0.828125 -7.890625 0.890625 -8.015625 C 1.078125 -8.210938 1.300781 -8.273438 1.5625 -8.203125 C 1.851562 -8.117188 1.960938 -7.953125 1.890625 -7.703125 C 1.753906 -7.304688 1.617188 -6.921875 1.484375 -6.546875 C 1.421875 -6.367188 1.351562 -6.195312 1.28125 -6.03125 C 1.164062 -5.726562 1.128906 -5.535156 1.171875 -5.453125 C 1.210938 -5.367188 1.40625 -5.425781 1.75 -5.625 C 1.976562 -5.78125 2.207031 -5.9375 2.4375 -6.09375 C 2.707031 -6.28125 2.96875 -6.445312 3.21875 -6.59375 C 3.613281 -6.84375 4.019531 -7.050781 4.4375 -7.21875 C 4.632812 -7.300781 4.835938 -7.363281 5.046875 -7.40625 C 5.265625 -7.445312 5.46875 -7.398438 5.65625 -7.265625 C 5.800781 -7.148438 5.863281 -7.015625 5.84375 -6.859375 C 5.820312 -6.710938 5.78125 -6.578125 5.71875 -6.453125 C 5.601562 -6.191406 5.554688 -6.023438 5.578125 -5.953125 C 5.597656 -5.890625 5.660156 -5.878906 5.765625 -5.921875 C 5.867188 -5.960938 6.046875 -6.0625 6.296875 -6.21875 C 6.554688 -6.375 6.832031 -6.546875 7.125 -6.734375 C 7.5 -6.972656 7.890625 -7.203125 8.296875 -7.421875 C 8.640625 -7.640625 9.003906 -7.773438 9.390625 -7.828125 C 9.929688 -7.859375 10.148438 -7.640625 10.046875 -7.171875 C 9.953125 -6.703125 9.765625 -6.144531 9.484375 -5.5 C 9.203125 -4.851562 9.171875 -4.457031 9.390625 -4.3125 C 9.617188 -4.164062 10.113281 -4.363281 10.875 -4.90625 C 11.632812 -5.457031 12.066406 -5.765625 12.171875 -5.828125 Z M 12.171875 -5.828125 "/></g></g><g transform="translate(198.088373, 52.827513)"><g><path d="M 1.84375 -2.765625 L 1.8125 -2.765625 C 0.6875 -2.773438 -0.0507812 -3.019531 -0.40625 -3.5 C -0.757812 -3.988281 -0.742188 -4.640625 -0.359375 -5.453125 C -0.0351562 -6.066406 0.375 -6.601562 0.875 -7.0625 C 1.039062 -7.207031 1.210938 -7.328125 1.390625 -7.421875 C 1.578125 -7.515625 1.78125 -7.5625 2 -7.5625 C 2.132812 -7.59375 2.285156 -7.570312 2.453125 -7.5 C 2.503906 -7.476562 2.5625 -7.457031 2.625 -7.4375 C 2.75 -7.457031 2.875 -7.5 3 -7.5625 C 3.03125 -7.59375 3.070312 -7.613281 3.125 -7.625 C 3.382812 -7.726562 3.660156 -7.769531 3.953125 -7.75 C 4.066406 -7.75 4.1875 -7.75 4.3125 -7.75 C 4.769531 -7.6875 5.113281 -7.492188 5.34375 -7.171875 C 5.570312 -6.859375 5.65625 -6.476562 5.59375 -6.03125 C 5.550781 -5.757812 5.460938 -5.503906 5.328125 -5.265625 C 4.441406 -3.660156 3.304688 -2.828125 1.921875 -2.765625 Z M 3.6875 -6.921875 C 3.070312 -6.953125 2.523438 -6.773438 2.046875 -6.390625 C 1.578125 -6.015625 1.222656 -5.582031 0.984375 -5.09375 C 0.753906 -4.601562 0.691406 -4.203125 0.796875 -3.890625 C 0.898438 -3.578125 1.222656 -3.488281 1.765625 -3.625 C 2.378906 -3.8125 2.921875 -4.160156 3.390625 -4.671875 C 3.859375 -5.191406 4.144531 -5.679688 4.25 -6.140625 C 4.351562 -6.597656 4.164062 -6.859375 3.6875 -6.921875 Z M 3.6875 -6.921875 "/></g></g><g transform="translate(204.272137, 52.827513)"><g><path d="M 5.640625 -5.90625 C 4.410156 -5.445312 3.523438 -5.070312 2.984375 -4.78125 C 2.585938 -4.59375 2.359375 -4.429688 2.296875 -4.296875 C 2.242188 -4.171875 2.289062 -3.9375 2.4375 -3.59375 C 2.4375 -3.582031 2.445312 -3.5625 2.46875 -3.53125 C 2.632812 -3.113281 2.734375 -2.6875 2.765625 -2.25 C 2.828125 -1.351562 2.070312 -0.726562 0.5 -0.375 C -1.070312 -0.0195312 -2.125 -0.0078125 -2.65625 -0.34375 C -3.1875 -0.675781 -3.347656 -1.097656 -3.140625 -1.609375 C -2.941406 -2.117188 -2.410156 -2.632812 -1.546875 -3.15625 C -0.679688 -3.6875 -0.109375 -4.066406 0.171875 -4.296875 C 0.460938 -4.535156 0.550781 -4.800781 0.4375 -5.09375 C 0.40625 -5.1875 0.363281 -5.285156 0.3125 -5.390625 C 0.207031 -5.628906 0.101562 -5.878906 0 -6.140625 C -0.195312 -6.597656 -0.28125 -7.050781 -0.25 -7.5 C -0.226562 -7.957031 -0.0664062 -8.335938 0.234375 -8.640625 C 0.546875 -8.953125 1.023438 -9.117188 1.671875 -9.140625 C 2.035156 -9.148438 2.359375 -9.097656 2.640625 -8.984375 C 2.929688 -8.878906 3.160156 -8.675781 3.328125 -8.375 C 3.472656 -8.164062 3.429688 -7.972656 3.203125 -7.796875 C 3.054688 -7.679688 2.894531 -7.664062 2.71875 -7.75 C 2.613281 -7.800781 2.507812 -7.867188 2.40625 -7.953125 C 2.40625 -7.972656 2.40625 -7.984375 2.40625 -7.984375 C 2.363281 -8.015625 2.320312 -8.046875 2.28125 -8.078125 C 2.238281 -8.148438 2.1875 -8.207031 2.125 -8.25 C 1.925781 -8.394531 1.722656 -8.4375 1.515625 -8.375 C 1.304688 -8.320312 1.15625 -8.164062 1.0625 -7.90625 C 0.988281 -7.707031 0.953125 -7.5 0.953125 -7.28125 C 0.972656 -7.03125 1.03125 -6.785156 1.125 -6.546875 C 1.195312 -6.398438 1.257812 -6.265625 1.3125 -6.140625 C 1.445312 -5.796875 1.554688 -5.554688 1.640625 -5.421875 C 1.722656 -5.296875 1.820312 -5.242188 1.9375 -5.265625 C 2.0625 -5.285156 3.164062 -5.679688 5.25 -6.453125 C 5.695312 -6.597656 5.828125 -6.414062 5.640625 -5.90625 Z M 0.59375 -1.453125 C 1.132812 -1.640625 1.363281 -2.003906 1.28125 -2.546875 C 1.28125 -2.585938 1.269531 -2.628906 1.25 -2.671875 C 1.21875 -2.972656 1.15625 -3.203125 1.0625 -3.359375 C 0.976562 -3.515625 0.769531 -3.507812 0.4375 -3.34375 C -0.363281 -2.882812 -1.109375 -2.347656 -1.796875 -1.734375 C -1.835938 -1.679688 -1.878906 -1.628906 -1.921875 -1.578125 C -1.921875 -1.578125 -1.925781 -1.566406 -1.9375 -1.546875 C -1.988281 -1.484375 -2 -1.410156 -1.96875 -1.328125 C -1.9375 -1.253906 -1.867188 -1.21875 -1.765625 -1.21875 C -0.960938 -1.09375 -0.175781 -1.171875 0.59375 -1.453125 Z M 0.59375 -1.453125 "/></g></g><g transform="translate(209.431096, 52.827513)"><g/></g><g transform="translate(218.2351, 52.827513)"><g><path d="M 6.640625 -4.46875 C 6.191406 -4.03125 5.664062 -3.648438 5.0625 -3.328125 C 4.46875 -3.015625 3.96875 -2.8125 3.5625 -2.71875 C 3.15625 -2.625 2.738281 -2.566406 2.3125 -2.546875 C 1.632812 -2.515625 1.007812 -2.609375 0.4375 -2.828125 C -0.507812 -3.210938 -0.835938 -3.9375 -0.546875 -5 C -0.273438 -5.925781 0.273438 -6.648438 1.109375 -7.171875 C 1.941406 -7.691406 2.796875 -7.941406 3.671875 -7.921875 C 3.671875 -7.921875 3.679688 -7.921875 3.703125 -7.921875 C 3.929688 -7.941406 4.144531 -7.925781 4.34375 -7.875 C 4.6875 -7.757812 4.90625 -7.5625 5 -7.28125 C 5.09375 -7 5.03125 -6.6875 4.8125 -6.34375 C 4.3125 -5.59375 3.632812 -5.175781 2.78125 -5.09375 C 2.21875 -5.03125 1.671875 -5.054688 1.140625 -5.171875 C 1.035156 -5.179688 0.941406 -5.148438 0.859375 -5.078125 C 0.785156 -5.015625 0.742188 -4.929688 0.734375 -4.828125 C 0.578125 -4.160156 0.78125 -3.734375 1.34375 -3.546875 C 2.039062 -3.304688 2.769531 -3.304688 3.53125 -3.546875 C 4.394531 -3.816406 5.21875 -4.328125 6 -5.078125 C 6.789062 -5.835938 7.242188 -6.191406 7.359375 -6.140625 C 7.484375 -6.085938 7.519531 -5.941406 7.46875 -5.703125 C 7.363281 -5.328125 7.085938 -4.914062 6.640625 -4.46875 Z M 1.671875 -6.34375 C 1.628906 -6.289062 1.597656 -6.226562 1.578125 -6.15625 C 1.554688 -6.09375 1.582031 -6.035156 1.65625 -5.984375 C 1.925781 -5.828125 2.21875 -5.769531 2.53125 -5.8125 C 2.851562 -5.851562 3.125 -5.972656 3.34375 -6.171875 C 3.5625 -6.367188 3.65625 -6.613281 3.625 -6.90625 C 3.601562 -7.007812 3.550781 -7.070312 3.46875 -7.09375 C 3.382812 -7.125 3.300781 -7.128906 3.21875 -7.109375 C 2.644531 -7.015625 2.128906 -6.757812 1.671875 -6.34375 Z M 1.671875 -6.34375 "/></g></g><g transform="translate(225.012785, 52.827513)"><g><path d="M 9.21875 -5.8125 C 9.34375 -5.65625 9.1875 -5.367188 8.75 -4.953125 C 8.320312 -4.546875 7.863281 -4.203125 7.375 -3.921875 C 6.882812 -3.640625 6.316406 -3.359375 5.671875 -3.078125 C 5.242188 -2.898438 4.785156 -2.835938 4.296875 -2.890625 C 3.816406 -2.953125 3.578125 -3.242188 3.578125 -3.765625 C 3.578125 -4.285156 3.703125 -4.804688 3.953125 -5.328125 C 4.191406 -5.847656 4.242188 -6.113281 4.109375 -6.125 C 3.972656 -6.144531 3.691406 -6.019531 3.265625 -5.75 C 2.148438 -5.019531 1.113281 -4.1875 0.15625 -3.25 C -0.09375 -2.9375 -0.414062 -2.765625 -0.8125 -2.734375 C -1.019531 -2.734375 -1.175781 -2.796875 -1.28125 -2.921875 C -1.394531 -3.054688 -1.410156 -3.195312 -1.328125 -3.34375 C -0.640625 -4.601562 0.0507812 -5.851562 0.75 -7.09375 C 0.90625 -7.34375 1.132812 -7.5 1.4375 -7.5625 C 1.570312 -7.59375 1.695312 -7.550781 1.8125 -7.4375 C 1.925781 -7.332031 1.984375 -7.21875 1.984375 -7.09375 C 1.960938 -6.96875 1.910156 -6.816406 1.828125 -6.640625 C 1.785156 -6.546875 1.75 -6.453125 1.71875 -6.359375 C 1.6875 -6.265625 1.675781 -6.1875 1.6875 -6.125 C 1.695312 -6.0625 1.742188 -6.039062 1.828125 -6.0625 C 1.941406 -6.125 2.054688 -6.191406 2.171875 -6.265625 C 2.472656 -6.429688 2.757812 -6.59375 3.03125 -6.75 C 3.269531 -6.894531 3.519531 -7.019531 3.78125 -7.125 C 4.039062 -7.226562 4.316406 -7.300781 4.609375 -7.34375 C 5.078125 -7.375 5.40625 -7.269531 5.59375 -7.03125 C 5.789062 -6.789062 5.816406 -6.457031 5.671875 -6.03125 C 5.515625 -5.644531 5.351562 -5.257812 5.1875 -4.875 C 4.96875 -4.519531 4.925781 -4.25 5.0625 -4.0625 C 5.207031 -3.875 5.859375 -4.085938 7.015625 -4.703125 L 7.890625 -5.21875 C 8.710938 -5.738281 9.15625 -5.9375 9.21875 -5.8125 Z M 9.21875 -5.8125 "/></g></g></g><g fill="#6b625d" fill-opacity="1"><g transform="translate(74.597673, 70.030285)"><g><path d="M 3.234375 0.046875 C 3.023438 0.046875 2.773438 0.0351562 2.484375 0.015625 C 2.378906 0.00390625 2.25 0 2.09375 0 C 1.9375 -0.0078125 1.757812 -0.015625 1.5625 -0.015625 L 0.828125 -0.015625 C 0.703125 -0.00390625 0.523438 0 0.296875 0 C 0.285156 0 0.28125 -0.0195312 0.28125 -0.0625 C 0.28125 -0.101562 0.285156 -0.125 0.296875 -0.125 C 0.503906 -0.125 0.660156 -0.140625 0.765625 -0.171875 C 0.867188 -0.203125 0.9375 -0.265625 0.96875 -0.359375 C 1.007812 -0.453125 1.03125 -0.601562 1.03125 -0.8125 L 1.03125 -5.40625 C 1.03125 -5.601562 1.007812 -5.75 0.96875 -5.84375 C 0.9375 -5.9375 0.867188 -6 0.765625 -6.03125 C 0.671875 -6.070312 0.519531 -6.09375 0.3125 -6.09375 C 0.289062 -6.09375 0.28125 -6.113281 0.28125 -6.15625 C 0.28125 -6.195312 0.289062 -6.21875 0.3125 -6.21875 L 0.84375 -6.203125 C 1.144531 -6.191406 1.382812 -6.1875 1.5625 -6.1875 C 1.84375 -6.1875 2.125 -6.195312 2.40625 -6.21875 C 2.75 -6.226562 2.976562 -6.234375 3.09375 -6.234375 C 3.769531 -6.234375 4.367188 -6.097656 4.890625 -5.828125 C 5.410156 -5.566406 5.8125 -5.207031 6.09375 -4.75 C 6.375 -4.289062 6.515625 -3.773438 6.515625 -3.203125 C 6.515625 -2.566406 6.367188 -2 6.078125 -1.5 C 5.785156 -1.007812 5.390625 -0.628906 4.890625 -0.359375 C 4.390625 -0.0859375 3.835938 0.046875 3.234375 0.046875 Z M 3.140625 -0.1875 C 3.566406 -0.1875 3.941406 -0.289062 4.265625 -0.5 C 4.585938 -0.71875 4.835938 -1.039062 5.015625 -1.46875 C 5.203125 -1.894531 5.296875 -2.398438 5.296875 -2.984375 C 5.296875 -3.546875 5.207031 -4.054688 5.03125 -4.515625 C 4.863281 -4.984375 4.617188 -5.347656 4.296875 -5.609375 C 3.984375 -5.878906 3.617188 -6.015625 3.203125 -6.015625 C 2.785156 -6.015625 2.5 -5.972656 2.34375 -5.890625 C 2.195312 -5.816406 2.125 -5.648438 2.125 -5.390625 L 2.125 -0.921875 C 2.125 -0.648438 2.191406 -0.457031 2.328125 -0.34375 C 2.472656 -0.238281 2.742188 -0.1875 3.140625 -0.1875 Z M 3.140625 -0.1875 "/></g></g></g><g fill="#6b625d" fill-opacity="1"><g transform="translate(81.233155, 70.030285)"><g><path d="M 1.328125 -4.703125 C 1.328125 -4.691406 1.3125 -4.6875 1.28125 -4.6875 C 1.257812 -4.6875 1.238281 -4.691406 1.21875 -4.703125 C 1.207031 -4.710938 1.207031 -4.722656 1.21875 -4.734375 L 1.546875 -7.109375 C 1.554688 -7.140625 1.660156 -7.171875 1.859375 -7.203125 C 2.066406 -7.242188 2.242188 -7.265625 2.390625 -7.265625 C 2.484375 -7.265625 2.523438 -7.25 2.515625 -7.21875 Z M 0.390625 0 C 0.367188 0 0.359375 -0.0195312 0.359375 -0.0625 C 0.359375 -0.101562 0.367188 -0.125 0.390625 -0.125 C 0.597656 -0.125 0.738281 -0.171875 0.8125 -0.265625 C 0.882812 -0.359375 0.921875 -0.539062 0.921875 -0.8125 L 0.921875 -2.578125 C 0.921875 -2.804688 0.894531 -2.96875 0.84375 -3.0625 C 0.800781 -3.164062 0.722656 -3.21875 0.609375 -3.21875 C 0.523438 -3.21875 0.40625 -3.179688 0.25 -3.109375 L 0.234375 -3.109375 C 0.210938 -3.109375 0.191406 -3.125 0.171875 -3.15625 C 0.160156 -3.195312 0.164062 -3.222656 0.1875 -3.234375 L 1.6875 -3.921875 L 1.71875 -3.9375 C 1.75 -3.9375 1.78125 -3.914062 1.8125 -3.875 C 1.851562 -3.84375 1.875 -3.816406 1.875 -3.796875 L 1.875 -3.578125 C 1.851562 -3.316406 1.84375 -2.992188 1.84375 -2.609375 L 1.84375 -0.8125 C 1.84375 -0.539062 1.878906 -0.359375 1.953125 -0.265625 C 2.035156 -0.171875 2.179688 -0.125 2.390625 -0.125 C 2.410156 -0.125 2.421875 -0.101562 2.421875 -0.0625 C 2.421875 -0.0195312 2.410156 0 2.390625 0 C 2.210938 0 2.078125 -0.00390625 1.984375 -0.015625 L 0.796875 -0.015625 C 0.691406 -0.00390625 0.554688 0 0.390625 0 Z M 0.390625 0 "/></g></g></g><g fill="#6b625d" fill-opacity="1"><g transform="translate(83.477997, 70.030285)"><g><path d="M 4.15625 -0.53125 C 4.1875 -0.53125 4.207031 -0.515625 4.21875 -0.484375 C 4.226562 -0.460938 4.21875 -0.441406 4.1875 -0.421875 L 3.171875 0.0625 C 3.140625 0.0703125 3.109375 0.078125 3.078125 0.078125 C 2.960938 0.078125 2.859375 0.0195312 2.765625 -0.09375 C 2.671875 -0.207031 2.601562 -0.359375 2.5625 -0.546875 L 2.140625 -0.25 C 1.984375 -0.132812 1.835938 -0.0507812 1.703125 0 C 1.578125 0.0390625 1.429688 0.0625 1.265625 0.0625 C 0.972656 0.0625 0.753906 0 0.609375 -0.125 C 0.460938 -0.25 0.390625 -0.421875 0.390625 -0.640625 C 0.390625 -0.828125 0.429688 -0.972656 0.515625 -1.078125 C 0.609375 -1.191406 0.71875 -1.28125 0.84375 -1.34375 C 0.976562 -1.40625 1.160156 -1.472656 1.390625 -1.546875 L 1.640625 -1.640625 L 2.53125 -1.96875 L 2.53125 -2.53125 C 2.53125 -2.957031 2.492188 -3.265625 2.421875 -3.453125 C 2.359375 -3.648438 2.242188 -3.75 2.078125 -3.75 C 1.722656 -3.75 1.523438 -3.476562 1.484375 -2.9375 C 1.460938 -2.738281 1.398438 -2.59375 1.296875 -2.5 C 1.203125 -2.414062 1.070312 -2.375 0.90625 -2.375 C 0.738281 -2.375 0.613281 -2.40625 0.53125 -2.46875 C 0.457031 -2.539062 0.421875 -2.632812 0.421875 -2.75 C 0.421875 -2.945312 0.535156 -3.132812 0.765625 -3.3125 C 1.003906 -3.5 1.285156 -3.648438 1.609375 -3.765625 C 1.941406 -3.878906 2.234375 -3.9375 2.484375 -3.9375 C 2.773438 -3.9375 3.007812 -3.84375 3.1875 -3.65625 C 3.375 -3.476562 3.46875 -3.203125 3.46875 -2.828125 L 3.46875 -1.078125 C 3.46875 -0.878906 3.5 -0.726562 3.5625 -0.625 C 3.632812 -0.519531 3.734375 -0.46875 3.859375 -0.46875 C 3.953125 -0.46875 4.050781 -0.488281 4.15625 -0.53125 Z M 2.546875 -0.71875 C 2.535156 -0.738281 2.53125 -0.78125 2.53125 -0.84375 L 2.53125 -1.796875 L 2.109375 -1.59375 C 2.085938 -1.59375 2.019531 -1.566406 1.90625 -1.515625 C 1.789062 -1.472656 1.691406 -1.398438 1.609375 -1.296875 C 1.523438 -1.203125 1.484375 -1.09375 1.484375 -0.96875 C 1.484375 -0.800781 1.535156 -0.671875 1.640625 -0.578125 C 1.742188 -0.492188 1.863281 -0.453125 2 -0.453125 C 2.101562 -0.453125 2.210938 -0.488281 2.328125 -0.5625 Z M 2.546875 -0.71875 "/></g></g></g><g fill="#6b625d" fill-opacity="1"><g transform="translate(87.292344, 70.030285)"><g><path d="M 1.171875 -3.359375 C 1.171875 -3.171875 1.238281 -3.003906 1.375 -2.859375 C 1.507812 -2.722656 1.707031 -2.578125 1.96875 -2.421875 C 2.21875 -2.273438 2.40625 -2.160156 2.53125 -2.078125 C 2.65625 -1.992188 2.765625 -1.878906 2.859375 -1.734375 C 2.960938 -1.585938 3.015625 -1.40625 3.015625 -1.1875 C 3.015625 -0.96875 2.957031 -0.757812 2.84375 -0.5625 C 2.726562 -0.363281 2.554688 -0.203125 2.328125 -0.078125 C 2.109375 0.046875 1.84375 0.109375 1.53125 0.109375 C 1.164062 0.109375 0.820312 0.0195312 0.5 -0.15625 C 0.457031 -0.195312 0.4375 -0.238281 0.4375 -0.28125 L 0.421875 -1.265625 C 0.421875 -1.285156 0.4375 -1.296875 0.46875 -1.296875 C 0.507812 -1.296875 0.53125 -1.289062 0.53125 -1.28125 C 0.644531 -0.945312 0.820312 -0.664062 1.0625 -0.4375 C 1.3125 -0.207031 1.5625 -0.09375 1.8125 -0.09375 C 1.945312 -0.09375 2.054688 -0.132812 2.140625 -0.21875 C 2.222656 -0.300781 2.265625 -0.425781 2.265625 -0.59375 C 2.265625 -0.84375 2.191406 -1.035156 2.046875 -1.171875 C 1.910156 -1.316406 1.707031 -1.46875 1.4375 -1.625 C 1.207031 -1.75 1.03125 -1.847656 0.90625 -1.921875 C 0.789062 -2.003906 0.6875 -2.117188 0.59375 -2.265625 C 0.5 -2.410156 0.453125 -2.585938 0.453125 -2.796875 C 0.453125 -3.191406 0.59375 -3.476562 0.875 -3.65625 C 1.15625 -3.84375 1.492188 -3.9375 1.890625 -3.9375 C 2.046875 -3.9375 2.1875 -3.925781 2.3125 -3.90625 C 2.4375 -3.882812 2.570312 -3.84375 2.71875 -3.78125 C 2.78125 -3.757812 2.8125 -3.722656 2.8125 -3.671875 C 2.8125 -3.503906 2.804688 -3.378906 2.796875 -3.296875 L 2.796875 -2.796875 C 2.796875 -2.773438 2.773438 -2.765625 2.734375 -2.765625 C 2.691406 -2.765625 2.671875 -2.773438 2.671875 -2.796875 C 2.671875 -2.921875 2.617188 -3.054688 2.515625 -3.203125 C 2.410156 -3.347656 2.269531 -3.472656 2.09375 -3.578125 C 1.925781 -3.691406 1.753906 -3.75 1.578125 -3.75 C 1.304688 -3.75 1.171875 -3.617188 1.171875 -3.359375 Z M 1.171875 -3.359375 "/></g></g></g><g fill="#6b625d" fill-opacity="1"><g transform="translate(153.042009, 70.030285)"><g><path d="M 7.28125 -0.125 C 7.289062 -0.125 7.296875 -0.101562 7.296875 -0.0625 C 7.296875 -0.0195312 7.289062 0 7.28125 0 C 7.039062 0 6.851562 -0.00390625 6.71875 -0.015625 L 5.0625 -0.015625 C 4.9375 -0.00390625 4.773438 0 4.578125 0 C 4.554688 0 4.546875 -0.0195312 4.546875 -0.0625 C 4.546875 -0.101562 4.554688 -0.125 4.578125 -0.125 C 4.816406 -0.125 4.992188 -0.140625 5.109375 -0.171875 C 5.222656 -0.203125 5.296875 -0.265625 5.328125 -0.359375 C 5.367188 -0.453125 5.390625 -0.601562 5.390625 -0.8125 L 5.390625 -3.09375 L 2.1875 -3.09375 L 2.1875 -0.8125 C 2.1875 -0.601562 2.207031 -0.453125 2.25 -0.359375 C 2.289062 -0.265625 2.363281 -0.203125 2.46875 -0.171875 C 2.582031 -0.140625 2.765625 -0.125 3.015625 -0.125 C 3.023438 -0.125 3.03125 -0.101562 3.03125 -0.0625 C 3.03125 -0.0195312 3.023438 0 3.015625 0 C 2.773438 0 2.585938 -0.00390625 2.453125 -0.015625 L 0.84375 -0.015625 C 0.707031 -0.00390625 0.523438 0 0.296875 0 C 0.285156 0 0.28125 -0.0195312 0.28125 -0.0625 C 0.28125 -0.101562 0.285156 -0.125 0.296875 -0.125 C 0.523438 -0.125 0.691406 -0.140625 0.796875 -0.171875 C 0.910156 -0.203125 0.984375 -0.265625 1.015625 -0.359375 C 1.054688 -0.453125 1.078125 -0.601562 1.078125 -0.8125 L 1.078125 -5.40625 C 1.078125 -5.601562 1.054688 -5.75 1.015625 -5.84375 C 0.984375 -5.9375 0.914062 -6 0.8125 -6.03125 C 0.707031 -6.070312 0.539062 -6.09375 0.3125 -6.09375 C 0.289062 -6.09375 0.28125 -6.113281 0.28125 -6.15625 C 0.28125 -6.195312 0.289062 -6.21875 0.3125 -6.21875 L 0.859375 -6.203125 C 1.160156 -6.191406 1.40625 -6.1875 1.59375 -6.1875 C 1.84375 -6.1875 2.132812 -6.191406 2.46875 -6.203125 L 3.015625 -6.21875 C 3.023438 -6.21875 3.03125 -6.195312 3.03125 -6.15625 C 3.03125 -6.113281 3.023438 -6.09375 3.015625 -6.09375 C 2.773438 -6.09375 2.597656 -6.070312 2.484375 -6.03125 C 2.367188 -5.988281 2.289062 -5.921875 2.25 -5.828125 C 2.207031 -5.734375 2.1875 -5.585938 2.1875 -5.390625 L 2.1875 -3.375 L 5.390625 -3.375 L 5.390625 -5.390625 C 5.390625 -5.585938 5.367188 -5.734375 5.328125 -5.828125 C 5.296875 -5.921875 5.222656 -5.988281 5.109375 -6.03125 C 4.992188 -6.070312 4.816406 -6.09375 4.578125 -6.09375 C 4.554688 -6.09375 4.546875 -6.113281 4.546875 -6.15625 C 4.546875 -6.195312 4.554688 -6.21875 4.578125 -6.21875 L 5.0625 -6.203125 C 5.394531 -6.191406 5.691406 -6.1875 5.953125 -6.1875 C 6.128906 -6.1875 6.382812 -6.191406 6.71875 -6.203125 L 7.28125 -6.21875 C 7.289062 -6.21875 7.296875 -6.195312 7.296875 -6.15625 C 7.296875 -6.113281 7.289062 -6.09375 7.28125 -6.09375 C 7.050781 -6.09375 6.878906 -6.070312 6.765625 -6.03125 C 6.660156 -6 6.585938 -5.9375 6.546875 -5.84375 C 6.515625 -5.75 6.5 -5.601562 6.5 -5.40625 L 6.5 -0.8125 C 6.5 -0.601562 6.515625 -0.453125 6.546875 -0.359375 C 6.585938 -0.265625 6.660156 -0.203125 6.765625 -0.171875 C 6.867188 -0.140625 7.039062 -0.125 7.28125 -0.125 Z M 7.28125 -0.125 "/></g></g></g><g fill="#6b625d" fill-opacity="1"><g transform="translate(160.263577, 70.030285)"><g><path d="M 2.359375 0.125 C 1.941406 0.125 1.578125 0.03125 1.265625 -0.15625 C 0.960938 -0.34375 0.726562 -0.597656 0.5625 -0.921875 C 0.394531 -1.242188 0.3125 -1.59375 0.3125 -1.96875 C 0.3125 -2.394531 0.421875 -2.757812 0.640625 -3.0625 C 0.859375 -3.363281 1.132812 -3.585938 1.46875 -3.734375 C 1.8125 -3.890625 2.164062 -3.96875 2.53125 -3.96875 C 2.9375 -3.96875 3.289062 -3.867188 3.59375 -3.671875 C 3.894531 -3.484375 4.128906 -3.226562 4.296875 -2.90625 C 4.460938 -2.59375 4.546875 -2.257812 4.546875 -1.90625 C 4.546875 -1.507812 4.441406 -1.15625 4.234375 -0.84375 C 4.035156 -0.539062 3.769531 -0.300781 3.4375 -0.125 C 3.101562 0.0390625 2.742188 0.125 2.359375 0.125 Z M 2.65625 -0.078125 C 2.914062 -0.078125 3.113281 -0.203125 3.25 -0.453125 C 3.382812 -0.710938 3.453125 -1.082031 3.453125 -1.5625 C 3.453125 -2.019531 3.390625 -2.414062 3.265625 -2.75 C 3.148438 -3.082031 2.992188 -3.332031 2.796875 -3.5 C 2.609375 -3.664062 2.40625 -3.75 2.1875 -3.75 C 1.65625 -3.75 1.390625 -3.273438 1.390625 -2.328125 C 1.390625 -1.890625 1.445312 -1.5 1.5625 -1.15625 C 1.675781 -0.8125 1.828125 -0.546875 2.015625 -0.359375 C 2.210938 -0.171875 2.425781 -0.078125 2.65625 -0.078125 Z M 2.65625 -0.078125 "/></g></g></g><g fill="#6b625d" fill-opacity="1"><g transform="translate(164.753409, 70.030285)"><g><path d="M 2.96875 -3.9375 C 3.125 -3.9375 3.269531 -3.878906 3.40625 -3.765625 C 3.550781 -3.660156 3.625 -3.53125 3.625 -3.375 C 3.625 -3.238281 3.582031 -3.125 3.5 -3.03125 C 3.414062 -2.945312 3.300781 -2.90625 3.15625 -2.90625 C 3.0625 -2.90625 2.984375 -2.921875 2.921875 -2.953125 C 2.859375 -2.992188 2.789062 -3.054688 2.71875 -3.140625 C 2.664062 -3.203125 2.613281 -3.25 2.5625 -3.28125 C 2.519531 -3.3125 2.472656 -3.328125 2.421875 -3.328125 C 2.347656 -3.328125 2.273438 -3.300781 2.203125 -3.25 C 2.128906 -3.207031 2.007812 -3.101562 1.84375 -2.9375 L 1.84375 -0.8125 C 1.84375 -0.539062 1.90625 -0.359375 2.03125 -0.265625 C 2.15625 -0.171875 2.390625 -0.125 2.734375 -0.125 C 2.753906 -0.125 2.765625 -0.101562 2.765625 -0.0625 C 2.765625 -0.0195312 2.753906 0 2.734375 0 C 2.503906 0 2.320312 -0.00390625 2.1875 -0.015625 L 0.796875 -0.015625 C 0.691406 -0.00390625 0.554688 0 0.390625 0 C 0.367188 0 0.359375 -0.0195312 0.359375 -0.0625 C 0.359375 -0.101562 0.367188 -0.125 0.390625 -0.125 C 0.597656 -0.125 0.738281 -0.171875 0.8125 -0.265625 C 0.882812 -0.359375 0.921875 -0.539062 0.921875 -0.8125 L 0.921875 -2.671875 C 0.921875 -2.878906 0.894531 -3.03125 0.84375 -3.125 C 0.789062 -3.21875 0.710938 -3.265625 0.609375 -3.265625 C 0.492188 -3.265625 0.332031 -3.21875 0.125 -3.125 L 0.109375 -3.125 C 0.0859375 -3.125 0.0703125 -3.140625 0.0625 -3.171875 C 0.0507812 -3.210938 0.0507812 -3.234375 0.0625 -3.234375 L 1.453125 -3.921875 C 1.492188 -3.929688 1.515625 -3.9375 1.515625 -3.9375 C 1.585938 -3.9375 1.65625 -3.867188 1.71875 -3.734375 C 1.78125 -3.597656 1.820312 -3.414062 1.84375 -3.1875 C 2.113281 -3.457031 2.332031 -3.648438 2.5 -3.765625 C 2.675781 -3.878906 2.832031 -3.9375 2.96875 -3.9375 Z M 2.96875 -3.9375 "/></g></g></g><g fill="#6b625d" fill-opacity="1"><g transform="translate(168.150553, 70.030285)"><g><path d="M 4.15625 -0.53125 C 4.1875 -0.53125 4.207031 -0.515625 4.21875 -0.484375 C 4.226562 -0.460938 4.21875 -0.441406 4.1875 -0.421875 L 3.171875 0.0625 C 3.140625 0.0703125 3.109375 0.078125 3.078125 0.078125 C 2.960938 0.078125 2.859375 0.0195312 2.765625 -0.09375 C 2.671875 -0.207031 2.601562 -0.359375 2.5625 -0.546875 L 2.140625 -0.25 C 1.984375 -0.132812 1.835938 -0.0507812 1.703125 0 C 1.578125 0.0390625 1.429688 0.0625 1.265625 0.0625 C 0.972656 0.0625 0.753906 0 0.609375 -0.125 C 0.460938 -0.25 0.390625 -0.421875 0.390625 -0.640625 C 0.390625 -0.828125 0.429688 -0.972656 0.515625 -1.078125 C 0.609375 -1.191406 0.71875 -1.28125 0.84375 -1.34375 C 0.976562 -1.40625 1.160156 -1.472656 1.390625 -1.546875 L 1.640625 -1.640625 L 2.53125 -1.96875 L 2.53125 -2.53125 C 2.53125 -2.957031 2.492188 -3.265625 2.421875 -3.453125 C 2.359375 -3.648438 2.242188 -3.75 2.078125 -3.75 C 1.722656 -3.75 1.523438 -3.476562 1.484375 -2.9375 C 1.460938 -2.738281 1.398438 -2.59375 1.296875 -2.5 C 1.203125 -2.414062 1.070312 -2.375 0.90625 -2.375 C 0.738281 -2.375 0.613281 -2.40625 0.53125 -2.46875 C 0.457031 -2.539062 0.421875 -2.632812 0.421875 -2.75 C 0.421875 -2.945312 0.535156 -3.132812 0.765625 -3.3125 C 1.003906 -3.5 1.285156 -3.648438 1.609375 -3.765625 C 1.941406 -3.878906 2.234375 -3.9375 2.484375 -3.9375 C 2.773438 -3.9375 3.007812 -3.84375 3.1875 -3.65625 C 3.375 -3.476562 3.46875 -3.203125 3.46875 -2.828125 L 3.46875 -1.078125 C 3.46875 -0.878906 3.5 -0.726562 3.5625 -0.625 C 3.632812 -0.519531 3.734375 -0.46875 3.859375 -0.46875 C 3.953125 -0.46875 4.050781 -0.488281 4.15625 -0.53125 Z M 2.546875 -0.71875 C 2.535156 -0.738281 2.53125 -0.78125 2.53125 -0.84375 L 2.53125 -1.796875 L 2.109375 -1.59375 C 2.085938 -1.59375 2.019531 -1.566406 1.90625 -1.515625 C 1.789062 -1.472656 1.691406 -1.398438 1.609375 -1.296875 C 1.523438 -1.203125 1.484375 -1.09375 1.484375 -0.96875 C 1.484375 -0.800781 1.535156 -0.671875 1.640625 -0.578125 C 1.742188 -0.492188 1.863281 -0.453125 2 -0.453125 C 2.101562 -0.453125 2.210938 -0.488281 2.328125 -0.5625 Z M 2.546875 -0.71875 "/></g></g></g><g fill="#6b625d" fill-opacity="1"><g transform="translate(171.9649, 70.030285)"><g><path d="M 1.171875 -3.359375 C 1.171875 -3.171875 1.238281 -3.003906 1.375 -2.859375 C 1.507812 -2.722656 1.707031 -2.578125 1.96875 -2.421875 C 2.21875 -2.273438 2.40625 -2.160156 2.53125 -2.078125 C 2.65625 -1.992188 2.765625 -1.878906 2.859375 -1.734375 C 2.960938 -1.585938 3.015625 -1.40625 3.015625 -1.1875 C 3.015625 -0.96875 2.957031 -0.757812 2.84375 -0.5625 C 2.726562 -0.363281 2.554688 -0.203125 2.328125 -0.078125 C 2.109375 0.046875 1.84375 0.109375 1.53125 0.109375 C 1.164062 0.109375 0.820312 0.0195312 0.5 -0.15625 C 0.457031 -0.195312 0.4375 -0.238281 0.4375 -0.28125 L 0.421875 -1.265625 C 0.421875 -1.285156 0.4375 -1.296875 0.46875 -1.296875 C 0.507812 -1.296875 0.53125 -1.289062 0.53125 -1.28125 C 0.644531 -0.945312 0.820312 -0.664062 1.0625 -0.4375 C 1.3125 -0.207031 1.5625 -0.09375 1.8125 -0.09375 C 1.945312 -0.09375 2.054688 -0.132812 2.140625 -0.21875 C 2.222656 -0.300781 2.265625 -0.425781 2.265625 -0.59375 C 2.265625 -0.84375 2.191406 -1.035156 2.046875 -1.171875 C 1.910156 -1.316406 1.707031 -1.46875 1.4375 -1.625 C 1.207031 -1.75 1.03125 -1.847656 0.90625 -1.921875 C 0.789062 -2.003906 0.6875 -2.117188 0.59375 -2.265625 C 0.5 -2.410156 0.453125 -2.585938 0.453125 -2.796875 C 0.453125 -3.191406 0.59375 -3.476562 0.875 -3.65625 C 1.15625 -3.84375 1.492188 -3.9375 1.890625 -3.9375 C 2.046875 -3.9375 2.1875 -3.925781 2.3125 -3.90625 C 2.4375 -3.882812 2.570312 -3.84375 2.71875 -3.78125 C 2.78125 -3.757812 2.8125 -3.722656 2.8125 -3.671875 C 2.8125 -3.503906 2.804688 -3.378906 2.796875 -3.296875 L 2.796875 -2.796875 C 2.796875 -2.773438 2.773438 -2.765625 2.734375 -2.765625 C 2.691406 -2.765625 2.671875 -2.773438 2.671875 -2.796875 C 2.671875 -2.921875 2.617188 -3.054688 2.515625 -3.203125 C 2.410156 -3.347656 2.269531 -3.472656 2.09375 -3.578125 C 1.925781 -3.691406 1.753906 -3.75 1.578125 -3.75 C 1.304688 -3.75 1.171875 -3.617188 1.171875 -3.359375 Z M 1.171875 -3.359375 "/></g></g></g><g fill="#6b625d" fill-opacity="1"><g transform="translate(215.084771, 70.030285)"><g><path d="M 8.28125 -0.125 C 8.289062 -0.125 8.296875 -0.101562 8.296875 -0.0625 C 8.296875 -0.0195312 8.289062 0 8.28125 0 C 8.050781 0 7.867188 -0.00390625 7.734375 -0.015625 L 6.265625 -0.015625 C 6.140625 -0.00390625 5.96875 0 5.75 0 C 5.726562 0 5.71875 -0.0195312 5.71875 -0.0625 C 5.71875 -0.101562 5.726562 -0.125 5.75 -0.125 C 6.019531 -0.125 6.203125 -0.15625 6.296875 -0.21875 C 6.398438 -0.28125 6.453125 -0.421875 6.453125 -0.640625 L 6.453125 -0.8125 L 6.234375 -4.875 L 4.1875 -0.0625 C 4.175781 -0.0390625 4.148438 -0.03125 4.109375 -0.03125 C 4.066406 -0.03125 4.039062 -0.0390625 4.03125 -0.0625 L 1.515625 -4.84375 L 1.4375 -1.265625 C 1.4375 -0.898438 1.507812 -0.617188 1.65625 -0.421875 C 1.800781 -0.222656 2.007812 -0.125 2.28125 -0.125 C 2.300781 -0.125 2.3125 -0.101562 2.3125 -0.0625 C 2.3125 -0.0195312 2.300781 0 2.28125 0 C 2.101562 0 1.96875 -0.00390625 1.875 -0.015625 L 0.703125 -0.015625 C 0.585938 -0.00390625 0.441406 0 0.265625 0 C 0.242188 0 0.234375 -0.0195312 0.234375 -0.0625 C 0.234375 -0.101562 0.242188 -0.125 0.265625 -0.125 C 0.535156 -0.125 0.75 -0.222656 0.90625 -0.421875 C 1.070312 -0.628906 1.15625 -0.910156 1.15625 -1.265625 L 1.25 -5.375 L 1.25 -5.390625 C 1.113281 -5.628906 0.972656 -5.804688 0.828125 -5.921875 C 0.679688 -6.035156 0.519531 -6.09375 0.34375 -6.09375 C 0.320312 -6.09375 0.3125 -6.113281 0.3125 -6.15625 C 0.3125 -6.195312 0.320312 -6.21875 0.34375 -6.21875 L 0.8125 -6.203125 C 0.894531 -6.191406 1.007812 -6.1875 1.15625 -6.1875 L 1.6875 -6.203125 C 1.75 -6.210938 1.828125 -6.21875 1.921875 -6.21875 C 2.003906 -6.21875 2.066406 -6.1875 2.109375 -6.125 C 2.160156 -6.0625 2.25 -5.914062 2.375 -5.6875 L 4.546875 -1.625 L 6.421875 -5.96875 C 6.460938 -6.0625 6.503906 -6.125 6.546875 -6.15625 C 6.597656 -6.195312 6.660156 -6.21875 6.734375 -6.21875 C 6.785156 -6.21875 6.847656 -6.210938 6.921875 -6.203125 C 7.003906 -6.191406 7.09375 -6.1875 7.1875 -6.1875 L 7.78125 -6.203125 C 7.875 -6.210938 8.003906 -6.21875 8.171875 -6.21875 C 8.191406 -6.21875 8.203125 -6.195312 8.203125 -6.15625 C 8.203125 -6.113281 8.191406 -6.09375 8.171875 -6.09375 C 7.867188 -6.09375 7.644531 -6.03125 7.5 -5.90625 C 7.363281 -5.78125 7.300781 -5.582031 7.3125 -5.3125 L 7.546875 -0.8125 C 7.566406 -0.601562 7.59375 -0.453125 7.625 -0.359375 C 7.664062 -0.265625 7.734375 -0.203125 7.828125 -0.171875 C 7.921875 -0.140625 8.070312 -0.125 8.28125 -0.125 Z M 8.28125 -0.125 "/></g></g></g><g fill="#6b625d" fill-opacity="1"><g transform="translate(223.230166, 70.030285)"><g><path d="M 1.34375 -4.921875 C 1.144531 -4.921875 0.992188 -4.972656 0.890625 -5.078125 C 0.785156 -5.179688 0.734375 -5.332031 0.734375 -5.53125 C 0.734375 -5.695312 0.785156 -5.832031 0.890625 -5.9375 C 1.003906 -6.039062 1.15625 -6.09375 1.34375 -6.09375 C 1.53125 -6.09375 1.671875 -6.039062 1.765625 -5.9375 C 1.867188 -5.84375 1.921875 -5.707031 1.921875 -5.53125 C 1.921875 -5.332031 1.867188 -5.179688 1.765625 -5.078125 C 1.671875 -4.972656 1.53125 -4.921875 1.34375 -4.921875 Z M 0.390625 0 C 0.367188 0 0.359375 -0.0195312 0.359375 -0.0625 C 0.359375 -0.101562 0.367188 -0.125 0.390625 -0.125 C 0.597656 -0.125 0.738281 -0.171875 0.8125 -0.265625 C 0.882812 -0.359375 0.921875 -0.539062 0.921875 -0.8125 L 0.921875 -2.578125 C 0.921875 -2.804688 0.894531 -2.96875 0.84375 -3.0625 C 0.800781 -3.164062 0.722656 -3.21875 0.609375 -3.21875 C 0.523438 -3.21875 0.40625 -3.179688 0.25 -3.109375 L 0.234375 -3.109375 C 0.210938 -3.109375 0.191406 -3.125 0.171875 -3.15625 C 0.160156 -3.195312 0.164062 -3.222656 0.1875 -3.234375 L 1.6875 -3.921875 L 1.71875 -3.9375 C 1.75 -3.9375 1.78125 -3.914062 1.8125 -3.875 C 1.851562 -3.84375 1.875 -3.816406 1.875 -3.796875 L 1.875 -3.578125 C 1.851562 -3.316406 1.84375 -2.992188 1.84375 -2.609375 L 1.84375 -0.8125 C 1.84375 -0.539062 1.878906 -0.359375 1.953125 -0.265625 C 2.035156 -0.171875 2.179688 -0.125 2.390625 -0.125 C 2.410156 -0.125 2.421875 -0.101562 2.421875 -0.0625 C 2.421875 -0.0195312 2.410156 0 2.390625 0 C 2.210938 0 2.078125 -0.00390625 1.984375 -0.015625 L 0.796875 -0.015625 C 0.691406 -0.00390625 0.554688 0 0.390625 0 Z M 0.390625 0 "/></g></g></g><g fill="#6b625d" fill-opacity="1"><g transform="translate(225.475008, 70.030285)"><g><path d="M 5.0625 -0.125 C 5.082031 -0.125 5.09375 -0.101562 5.09375 -0.0625 C 5.09375 -0.0195312 5.082031 0 5.0625 0 C 4.882812 0 4.75 -0.00390625 4.65625 -0.015625 L 3.484375 -0.015625 C 3.367188 -0.00390625 3.226562 0 3.0625 0 C 3.039062 0 3.03125 -0.0195312 3.03125 -0.0625 C 3.03125 -0.101562 3.039062 -0.125 3.0625 -0.125 C 3.269531 -0.125 3.410156 -0.171875 3.484375 -0.265625 C 3.554688 -0.359375 3.59375 -0.539062 3.59375 -0.8125 L 3.59375 -2.234375 C 3.59375 -2.585938 3.523438 -2.851562 3.390625 -3.03125 C 3.265625 -3.207031 3.0625 -3.296875 2.78125 -3.296875 C 2.625 -3.296875 2.457031 -3.257812 2.28125 -3.1875 C 2.113281 -3.125 1.96875 -3.035156 1.84375 -2.921875 L 1.84375 -0.8125 C 1.84375 -0.539062 1.878906 -0.359375 1.953125 -0.265625 C 2.035156 -0.171875 2.179688 -0.125 2.390625 -0.125 C 2.410156 -0.125 2.421875 -0.101562 2.421875 -0.0625 C 2.421875 -0.0195312 2.410156 0 2.390625 0 C 2.210938 0 2.078125 -0.00390625 1.984375 -0.015625 L 0.796875 -0.015625 C 0.691406 -0.00390625 0.554688 0 0.390625 0 C 0.367188 0 0.359375 -0.0195312 0.359375 -0.0625 C 0.359375 -0.101562 0.367188 -0.125 0.390625 -0.125 C 0.597656 -0.125 0.738281 -0.171875 0.8125 -0.265625 C 0.882812 -0.359375 0.921875 -0.539062 0.921875 -0.8125 L 0.921875 -2.671875 C 0.921875 -2.878906 0.894531 -3.03125 0.84375 -3.125 C 0.789062 -3.21875 0.710938 -3.265625 0.609375 -3.265625 C 0.492188 -3.265625 0.332031 -3.21875 0.125 -3.125 L 0.109375 -3.125 C 0.0859375 -3.125 0.0703125 -3.140625 0.0625 -3.171875 C 0.0507812 -3.210938 0.0507812 -3.234375 0.0625 -3.234375 L 1.453125 -3.921875 C 1.492188 -3.929688 1.515625 -3.9375 1.515625 -3.9375 C 1.585938 -3.9375 1.65625 -3.863281 1.71875 -3.71875 C 1.789062 -3.582031 1.832031 -3.390625 1.84375 -3.140625 C 2.300781 -3.679688 2.804688 -3.953125 3.359375 -3.953125 C 3.710938 -3.953125 3.992188 -3.835938 4.203125 -3.609375 C 4.410156 -3.378906 4.515625 -3.082031 4.515625 -2.71875 L 4.515625 -0.8125 C 4.515625 -0.539062 4.550781 -0.359375 4.625 -0.265625 C 4.707031 -0.171875 4.851562 -0.125 5.0625 -0.125 Z M 5.0625 -0.125 "/></g></g></g><g fill="#6b625d" fill-opacity="1"><g transform="translate(230.33239, 70.030285)"><g><path d="M 4.953125 -0.640625 C 4.972656 -0.640625 4.988281 -0.625 5 -0.59375 C 5.019531 -0.5625 5.023438 -0.539062 5.015625 -0.53125 L 3.640625 0.125 C 3.628906 0.132812 3.613281 0.140625 3.59375 0.140625 C 3.519531 0.140625 3.457031 0.0703125 3.40625 -0.0625 C 3.363281 -0.207031 3.335938 -0.40625 3.328125 -0.65625 C 2.890625 -0.132812 2.414062 0.125 1.90625 0.125 C 1.539062 0.125 1.253906 0.0078125 1.046875 -0.21875 C 0.835938 -0.445312 0.734375 -0.75 0.734375 -1.125 L 0.734375 -2.578125 C 0.734375 -3.015625 0.628906 -3.234375 0.421875 -3.234375 C 0.347656 -3.234375 0.265625 -3.207031 0.171875 -3.15625 C 0.140625 -3.15625 0.117188 -3.171875 0.109375 -3.203125 C 0.0976562 -3.242188 0.101562 -3.269531 0.125 -3.28125 L 1.453125 -3.921875 L 1.5 -3.921875 C 1.53125 -3.921875 1.5625 -3.90625 1.59375 -3.875 C 1.632812 -3.84375 1.65625 -3.816406 1.65625 -3.796875 L 1.65625 -1.59375 C 1.65625 -0.882812 1.929688 -0.53125 2.484375 -0.53125 C 2.628906 -0.53125 2.773438 -0.5625 2.921875 -0.625 C 3.078125 -0.6875 3.210938 -0.773438 3.328125 -0.890625 L 3.328125 -2.578125 C 3.328125 -3.015625 3.222656 -3.234375 3.015625 -3.234375 C 2.941406 -3.234375 2.859375 -3.207031 2.765625 -3.15625 L 2.75 -3.15625 C 2.726562 -3.15625 2.710938 -3.171875 2.703125 -3.203125 C 2.691406 -3.242188 2.695312 -3.269531 2.71875 -3.28125 L 4.046875 -3.921875 C 4.054688 -3.921875 4.070312 -3.921875 4.09375 -3.921875 C 4.125 -3.921875 4.15625 -3.90625 4.1875 -3.875 C 4.226562 -3.84375 4.25 -3.816406 4.25 -3.796875 L 4.25 -1.15625 C 4.25 -0.925781 4.269531 -0.765625 4.3125 -0.671875 C 4.351562 -0.578125 4.425781 -0.53125 4.53125 -0.53125 C 4.625 -0.53125 4.757812 -0.566406 4.9375 -0.640625 Z M 4.953125 -0.640625 "/></g></g></g><g fill="#6b625d" fill-opacity="1"><g transform="translate(234.981165, 70.030285)"><g><path d="M 3.21875 -0.703125 C 3.25 -0.703125 3.269531 -0.6875 3.28125 -0.65625 C 3.300781 -0.625 3.300781 -0.601562 3.28125 -0.59375 C 3.03125 -0.351562 2.789062 -0.171875 2.5625 -0.046875 C 2.332031 0.0664062 2.085938 0.125 1.828125 0.125 C 1.535156 0.125 1.285156 0.0546875 1.078125 -0.078125 C 0.878906 -0.222656 0.78125 -0.460938 0.78125 -0.796875 L 0.78125 -3 C 0.78125 -3.207031 0.742188 -3.347656 0.671875 -3.421875 C 0.597656 -3.503906 0.460938 -3.546875 0.265625 -3.546875 C 0.265625 -3.546875 0.257812 -3.554688 0.25 -3.578125 C 0.238281 -3.597656 0.234375 -3.617188 0.234375 -3.640625 C 0.234375 -3.660156 0.234375 -3.679688 0.234375 -3.703125 C 0.242188 -3.722656 0.253906 -3.734375 0.265625 -3.734375 C 0.609375 -3.742188 0.882812 -3.8125 1.09375 -3.9375 C 1.300781 -4.070312 1.457031 -4.273438 1.5625 -4.546875 C 1.582031 -4.578125 1.613281 -4.59375 1.65625 -4.59375 C 1.695312 -4.59375 1.71875 -4.578125 1.71875 -4.546875 L 1.71875 -3.75 C 2.101562 -3.757812 2.535156 -3.789062 3.015625 -3.84375 C 3.023438 -3.84375 3.035156 -3.816406 3.046875 -3.765625 C 3.066406 -3.722656 3.078125 -3.671875 3.078125 -3.609375 C 3.078125 -3.546875 3.066406 -3.476562 3.046875 -3.40625 C 3.023438 -3.34375 3 -3.316406 2.96875 -3.328125 C 2.539062 -3.421875 2.125 -3.472656 1.71875 -3.484375 L 1.71875 -1.125 C 1.71875 -0.875 1.78125 -0.6875 1.90625 -0.5625 C 2.039062 -0.445312 2.210938 -0.390625 2.421875 -0.390625 C 2.691406 -0.390625 2.953125 -0.488281 3.203125 -0.6875 Z M 3.21875 -0.703125 "/></g></g></g><g fill="#6b625d" fill-opacity="1"><g transform="translate(237.951168, 70.030285)"><g><path d="M 2.359375 0.125 C 1.941406 0.125 1.578125 0.03125 1.265625 -0.15625 C 0.960938 -0.34375 0.726562 -0.597656 0.5625 -0.921875 C 0.394531 -1.242188 0.3125 -1.59375 0.3125 -1.96875 C 0.3125 -2.394531 0.421875 -2.757812 0.640625 -3.0625 C 0.859375 -3.363281 1.132812 -3.585938 1.46875 -3.734375 C 1.8125 -3.890625 2.164062 -3.96875 2.53125 -3.96875 C 2.9375 -3.96875 3.289062 -3.867188 3.59375 -3.671875 C 3.894531 -3.484375 4.128906 -3.226562 4.296875 -2.90625 C 4.460938 -2.59375 4.546875 -2.257812 4.546875 -1.90625 C 4.546875 -1.507812 4.441406 -1.15625 4.234375 -0.84375 C 4.035156 -0.539062 3.769531 -0.300781 3.4375 -0.125 C 3.101562 0.0390625 2.742188 0.125 2.359375 0.125 Z M 2.65625 -0.078125 C 2.914062 -0.078125 3.113281 -0.203125 3.25 -0.453125 C 3.382812 -0.710938 3.453125 -1.082031 3.453125 -1.5625 C 3.453125 -2.019531 3.390625 -2.414062 3.265625 -2.75 C 3.148438 -3.082031 2.992188 -3.332031 2.796875 -3.5 C 2.609375 -3.664062 2.40625 -3.75 2.1875 -3.75 C 1.65625 -3.75 1.390625 -3.273438 1.390625 -2.328125 C 1.390625 -1.890625 1.445312 -1.5 1.5625 -1.15625 C 1.675781 -0.8125 1.828125 -0.546875 2.015625 -0.359375 C 2.210938 -0.171875 2.425781 -0.078125 2.65625 -0.078125 Z M 2.65625 -0.078125 "/></g></g></g><g fill="#6b625d" fill-opacity="1"><g transform="translate(242.441, 70.030285)"><g><path d="M 1.171875 -3.359375 C 1.171875 -3.171875 1.238281 -3.003906 1.375 -2.859375 C 1.507812 -2.722656 1.707031 -2.578125 1.96875 -2.421875 C 2.21875 -2.273438 2.40625 -2.160156 2.53125 -2.078125 C 2.65625 -1.992188 2.765625 -1.878906 2.859375 -1.734375 C 2.960938 -1.585938 3.015625 -1.40625 3.015625 -1.1875 C 3.015625 -0.96875 2.957031 -0.757812 2.84375 -0.5625 C 2.726562 -0.363281 2.554688 -0.203125 2.328125 -0.078125 C 2.109375 0.046875 1.84375 0.109375 1.53125 0.109375 C 1.164062 0.109375 0.820312 0.0195312 0.5 -0.15625 C 0.457031 -0.195312 0.4375 -0.238281 0.4375 -0.28125 L 0.421875 -1.265625 C 0.421875 -1.285156 0.4375 -1.296875 0.46875 -1.296875 C 0.507812 -1.296875 0.53125 -1.289062 0.53125 -1.28125 C 0.644531 -0.945312 0.820312 -0.664062 1.0625 -0.4375 C 1.3125 -0.207031 1.5625 -0.09375 1.8125 -0.09375 C 1.945312 -0.09375 2.054688 -0.132812 2.140625 -0.21875 C 2.222656 -0.300781 2.265625 -0.425781 2.265625 -0.59375 C 2.265625 -0.84375 2.191406 -1.035156 2.046875 -1.171875 C 1.910156 -1.316406 1.707031 -1.46875 1.4375 -1.625 C 1.207031 -1.75 1.03125 -1.847656 0.90625 -1.921875 C 0.789062 -2.003906 0.6875 -2.117188 0.59375 -2.265625 C 0.5 -2.410156 0.453125 -2.585938 0.453125 -2.796875 C 0.453125 -3.191406 0.59375 -3.476562 0.875 -3.65625 C 1.15625 -3.84375 1.492188 -3.9375 1.890625 -3.9375 C 2.046875 -3.9375 2.1875 -3.925781 2.3125 -3.90625 C 2.4375 -3.882812 2.570312 -3.84375 2.71875 -3.78125 C 2.78125 -3.757812 2.8125 -3.722656 2.8125 -3.671875 C 2.8125 -3.503906 2.804688 -3.378906 2.796875 -3.296875 L 2.796875 -2.796875 C 2.796875 -2.773438 2.773438 -2.765625 2.734375 -2.765625 C 2.691406 -2.765625 2.671875 -2.773438 2.671875 -2.796875 C 2.671875 -2.921875 2.617188 -3.054688 2.515625 -3.203125 C 2.410156 -3.347656 2.269531 -3.472656 2.09375 -3.578125 C 1.925781 -3.691406 1.753906 -3.75 1.578125 -3.75 C 1.304688 -3.75 1.171875 -3.617188 1.171875 -3.359375 Z M 1.171875 -3.359375 "/></g></g></g><g fill="#6b625d" fill-opacity="1"><g transform="translate(281.558388, 70.030285)"><g><path d="M 1.734375 -5.203125 C 1.734375 -4.960938 1.789062 -4.75 1.90625 -4.5625 C 2.03125 -4.382812 2.179688 -4.222656 2.359375 -4.078125 C 2.546875 -3.941406 2.789062 -3.773438 3.09375 -3.578125 C 3.425781 -3.367188 3.691406 -3.179688 3.890625 -3.015625 C 4.085938 -2.859375 4.253906 -2.664062 4.390625 -2.4375 C 4.523438 -2.207031 4.59375 -1.945312 4.59375 -1.65625 C 4.59375 -1.3125 4.5 -1.003906 4.3125 -0.734375 C 4.132812 -0.460938 3.878906 -0.25 3.546875 -0.09375 C 3.222656 0.0507812 2.859375 0.125 2.453125 0.125 C 2.148438 0.125 1.835938 0.0820312 1.515625 0 C 1.191406 -0.0820312 0.972656 -0.175781 0.859375 -0.28125 C 0.828125 -0.300781 0.800781 -0.320312 0.78125 -0.34375 C 0.769531 -0.375 0.765625 -0.414062 0.765625 -0.46875 L 0.734375 -2.046875 L 0.734375 -2.0625 C 0.734375 -2.082031 0.75 -2.09375 0.78125 -2.09375 C 0.8125 -2.101562 0.832031 -2.09375 0.84375 -2.0625 C 1.039062 -1.65625 1.210938 -1.328125 1.359375 -1.078125 C 1.515625 -0.828125 1.707031 -0.601562 1.9375 -0.40625 C 2.164062 -0.21875 2.425781 -0.125 2.71875 -0.125 C 2.976562 -0.125 3.191406 -0.195312 3.359375 -0.34375 C 3.535156 -0.488281 3.625 -0.734375 3.625 -1.078125 C 3.625 -1.367188 3.554688 -1.625 3.421875 -1.84375 C 3.296875 -2.0625 3.140625 -2.242188 2.953125 -2.390625 C 2.773438 -2.546875 2.523438 -2.726562 2.203125 -2.9375 C 1.878906 -3.144531 1.628906 -3.320312 1.453125 -3.46875 C 1.273438 -3.613281 1.125 -3.785156 1 -3.984375 C 0.875 -4.191406 0.8125 -4.4375 0.8125 -4.71875 C 0.8125 -5.070312 0.910156 -5.367188 1.109375 -5.609375 C 1.316406 -5.847656 1.578125 -6.023438 1.890625 -6.140625 C 2.210938 -6.253906 2.550781 -6.3125 2.90625 -6.3125 C 3.132812 -6.3125 3.367188 -6.289062 3.609375 -6.25 C 3.847656 -6.207031 4.039062 -6.160156 4.1875 -6.109375 C 4.238281 -6.078125 4.273438 -6.046875 4.296875 -6.015625 C 4.316406 -5.984375 4.328125 -5.945312 4.328125 -5.90625 L 4.328125 -4.4375 C 4.328125 -4.414062 4.3125 -4.398438 4.28125 -4.390625 C 4.25 -4.378906 4.226562 -4.382812 4.21875 -4.40625 L 4.140625 -4.59375 C 3.972656 -5.019531 3.78125 -5.378906 3.5625 -5.671875 C 3.34375 -5.960938 3.035156 -6.109375 2.640625 -6.109375 C 2.367188 -6.109375 2.148438 -6.03125 1.984375 -5.875 C 1.816406 -5.71875 1.734375 -5.492188 1.734375 -5.203125 Z M 1.734375 -5.203125 "/></g></g></g><g fill="#6b625d" fill-opacity="1"><g transform="translate(286.306491, 70.030285)"><g><path d="M 3.859375 -0.65625 C 3.867188 -0.65625 3.878906 -0.640625 3.890625 -0.609375 C 3.910156 -0.585938 3.914062 -0.570312 3.90625 -0.5625 C 3.65625 -0.320312 3.40625 -0.144531 3.15625 -0.03125 C 2.90625 0.0703125 2.628906 0.125 2.328125 0.125 C 1.910156 0.125 1.550781 0.0351562 1.25 -0.140625 C 0.945312 -0.316406 0.710938 -0.550781 0.546875 -0.84375 C 0.390625 -1.144531 0.3125 -1.46875 0.3125 -1.8125 C 0.3125 -2.195312 0.40625 -2.550781 0.59375 -2.875 C 0.789062 -3.195312 1.0625 -3.453125 1.40625 -3.640625 C 1.75 -3.828125 2.132812 -3.921875 2.5625 -3.921875 C 2.976562 -3.921875 3.296875 -3.828125 3.515625 -3.640625 C 3.742188 -3.460938 3.859375 -3.175781 3.859375 -2.78125 C 3.859375 -2.570312 3.820312 -2.46875 3.75 -2.46875 L 1.328125 -2.46875 C 1.328125 -2.414062 1.328125 -2.335938 1.328125 -2.234375 C 1.328125 -1.648438 1.457031 -1.191406 1.71875 -0.859375 C 1.988281 -0.535156 2.375 -0.375 2.875 -0.375 C 3.0625 -0.375 3.21875 -0.390625 3.34375 -0.421875 C 3.46875 -0.460938 3.628906 -0.535156 3.828125 -0.640625 Z M 2.1875 -3.734375 C 1.96875 -3.734375 1.785156 -3.632812 1.640625 -3.4375 C 1.492188 -3.25 1.394531 -2.988281 1.34375 -2.65625 L 2.796875 -2.6875 C 2.785156 -3.019531 2.734375 -3.273438 2.640625 -3.453125 C 2.546875 -3.640625 2.394531 -3.734375 2.1875 -3.734375 Z M 2.1875 -3.734375 "/></g></g></g><g fill="#6b625d" fill-opacity="1"><g transform="translate(290.091042, 70.030285)"><g><path d="M 2.484375 -0.40625 C 2.878906 -0.394531 3.195312 -0.367188 3.4375 -0.328125 C 3.6875 -0.296875 3.894531 -0.203125 4.0625 -0.046875 C 4.238281 0.109375 4.328125 0.347656 4.328125 0.671875 C 4.328125 1.035156 4.210938 1.378906 3.984375 1.703125 C 3.753906 2.035156 3.441406 2.300781 3.046875 2.5 C 2.660156 2.695312 2.25 2.796875 1.8125 2.796875 C 1.351562 2.796875 0.976562 2.691406 0.6875 2.484375 C 0.394531 2.273438 0.25 2.003906 0.25 1.671875 C 0.25 1.203125 0.582031 0.75 1.25 0.3125 C 0.769531 0.21875 0.53125 -0.015625 0.53125 -0.390625 C 0.53125 -0.804688 0.765625 -1.171875 1.234375 -1.484375 C 0.984375 -1.597656 0.785156 -1.765625 0.640625 -1.984375 C 0.492188 -2.203125 0.421875 -2.425781 0.421875 -2.65625 C 0.421875 -2.925781 0.503906 -3.15625 0.671875 -3.34375 C 0.847656 -3.53125 1.070312 -3.671875 1.34375 -3.765625 C 1.613281 -3.859375 1.890625 -3.90625 2.171875 -3.90625 C 2.585938 -3.90625 2.941406 -3.800781 3.234375 -3.59375 C 3.578125 -3.820312 3.9375 -3.9375 4.3125 -3.9375 C 4.363281 -3.9375 4.390625 -3.84375 4.390625 -3.65625 C 4.390625 -3.5625 4.375 -3.457031 4.34375 -3.34375 C 4.320312 -3.238281 4.296875 -3.191406 4.265625 -3.203125 C 3.992188 -3.316406 3.75 -3.375 3.53125 -3.375 L 3.453125 -3.375 C 3.640625 -3.164062 3.734375 -2.925781 3.734375 -2.65625 C 3.734375 -2.394531 3.644531 -2.160156 3.46875 -1.953125 C 3.289062 -1.753906 3.066406 -1.597656 2.796875 -1.484375 C 2.535156 -1.378906 2.265625 -1.328125 1.984375 -1.328125 C 1.773438 -1.328125 1.582031 -1.351562 1.40625 -1.40625 C 1.300781 -1.300781 1.25 -1.160156 1.25 -0.984375 C 1.25 -0.804688 1.296875 -0.675781 1.390625 -0.59375 C 1.492188 -0.519531 1.625 -0.472656 1.78125 -0.453125 C 1.9375 -0.429688 2.171875 -0.414062 2.484375 -0.40625 Z M 1.84375 -3.71875 C 1.539062 -3.71875 1.390625 -3.46875 1.390625 -2.96875 C 1.390625 -2.6875 1.425781 -2.429688 1.5 -2.203125 C 1.582031 -1.984375 1.6875 -1.8125 1.8125 -1.6875 C 1.945312 -1.5625 2.085938 -1.5 2.234375 -1.5 C 2.378906 -1.5 2.5 -1.570312 2.59375 -1.71875 C 2.695312 -1.863281 2.75 -2.085938 2.75 -2.390625 C 2.75 -2.671875 2.703125 -2.910156 2.609375 -3.109375 C 2.515625 -3.316406 2.394531 -3.46875 2.25 -3.5625 C 2.113281 -3.664062 1.976562 -3.71875 1.84375 -3.71875 Z M 2.40625 2.484375 C 2.738281 2.484375 3.003906 2.375 3.203125 2.15625 C 3.410156 1.945312 3.515625 1.660156 3.515625 1.296875 C 3.515625 1.015625 3.453125 0.804688 3.328125 0.671875 C 3.203125 0.546875 3.039062 0.46875 2.84375 0.4375 C 2.644531 0.40625 2.363281 0.390625 2 0.390625 C 1.9375 0.390625 1.851562 0.382812 1.75 0.375 C 1.644531 0.375 1.554688 0.367188 1.484375 0.359375 C 1.253906 0.523438 1.140625 0.789062 1.140625 1.15625 C 1.140625 1.570312 1.265625 1.894531 1.515625 2.125 C 1.765625 2.363281 2.0625 2.484375 2.40625 2.484375 Z M 2.40625 2.484375 "/></g></g></g><g fill="#6b625d" fill-opacity="1"><g transform="translate(294.203396, 70.030285)"><g><path d="M 4.953125 -0.640625 C 4.972656 -0.640625 4.988281 -0.625 5 -0.59375 C 5.019531 -0.5625 5.023438 -0.539062 5.015625 -0.53125 L 3.640625 0.125 C 3.628906 0.132812 3.613281 0.140625 3.59375 0.140625 C 3.519531 0.140625 3.457031 0.0703125 3.40625 -0.0625 C 3.363281 -0.207031 3.335938 -0.40625 3.328125 -0.65625 C 2.890625 -0.132812 2.414062 0.125 1.90625 0.125 C 1.539062 0.125 1.253906 0.0078125 1.046875 -0.21875 C 0.835938 -0.445312 0.734375 -0.75 0.734375 -1.125 L 0.734375 -2.578125 C 0.734375 -3.015625 0.628906 -3.234375 0.421875 -3.234375 C 0.347656 -3.234375 0.265625 -3.207031 0.171875 -3.15625 C 0.140625 -3.15625 0.117188 -3.171875 0.109375 -3.203125 C 0.0976562 -3.242188 0.101562 -3.269531 0.125 -3.28125 L 1.453125 -3.921875 L 1.5 -3.921875 C 1.53125 -3.921875 1.5625 -3.90625 1.59375 -3.875 C 1.632812 -3.84375 1.65625 -3.816406 1.65625 -3.796875 L 1.65625 -1.59375 C 1.65625 -0.882812 1.929688 -0.53125 2.484375 -0.53125 C 2.628906 -0.53125 2.773438 -0.5625 2.921875 -0.625 C 3.078125 -0.6875 3.210938 -0.773438 3.328125 -0.890625 L 3.328125 -2.578125 C 3.328125 -3.015625 3.222656 -3.234375 3.015625 -3.234375 C 2.941406 -3.234375 2.859375 -3.207031 2.765625 -3.15625 L 2.75 -3.15625 C 2.726562 -3.15625 2.710938 -3.171875 2.703125 -3.203125 C 2.691406 -3.242188 2.695312 -3.269531 2.71875 -3.28125 L 4.046875 -3.921875 C 4.054688 -3.921875 4.070312 -3.921875 4.09375 -3.921875 C 4.125 -3.921875 4.15625 -3.90625 4.1875 -3.875 C 4.226562 -3.84375 4.25 -3.816406 4.25 -3.796875 L 4.25 -1.15625 C 4.25 -0.925781 4.269531 -0.765625 4.3125 -0.671875 C 4.351562 -0.578125 4.425781 -0.53125 4.53125 -0.53125 C 4.625 -0.53125 4.757812 -0.566406 4.9375 -0.640625 Z M 4.953125 -0.640625 "/></g></g></g><g fill="#6b625d" fill-opacity="1"><g transform="translate(298.852171, 70.030285)"><g><path d="M 5.0625 -0.125 C 5.082031 -0.125 5.09375 -0.101562 5.09375 -0.0625 C 5.09375 -0.0195312 5.082031 0 5.0625 0 C 4.882812 0 4.75 -0.00390625 4.65625 -0.015625 L 3.484375 -0.015625 C 3.367188 -0.00390625 3.226562 0 3.0625 0 C 3.039062 0 3.03125 -0.0195312 3.03125 -0.0625 C 3.03125 -0.101562 3.039062 -0.125 3.0625 -0.125 C 3.269531 -0.125 3.410156 -0.171875 3.484375 -0.265625 C 3.554688 -0.359375 3.59375 -0.539062 3.59375 -0.8125 L 3.59375 -2.234375 C 3.59375 -2.585938 3.523438 -2.851562 3.390625 -3.03125 C 3.265625 -3.207031 3.0625 -3.296875 2.78125 -3.296875 C 2.625 -3.296875 2.457031 -3.257812 2.28125 -3.1875 C 2.113281 -3.125 1.96875 -3.035156 1.84375 -2.921875 L 1.84375 -0.8125 C 1.84375 -0.539062 1.878906 -0.359375 1.953125 -0.265625 C 2.035156 -0.171875 2.179688 -0.125 2.390625 -0.125 C 2.410156 -0.125 2.421875 -0.101562 2.421875 -0.0625 C 2.421875 -0.0195312 2.410156 0 2.390625 0 C 2.210938 0 2.078125 -0.00390625 1.984375 -0.015625 L 0.796875 -0.015625 C 0.691406 -0.00390625 0.554688 0 0.390625 0 C 0.367188 0 0.359375 -0.0195312 0.359375 -0.0625 C 0.359375 -0.101562 0.367188 -0.125 0.390625 -0.125 C 0.597656 -0.125 0.738281 -0.171875 0.8125 -0.265625 C 0.882812 -0.359375 0.921875 -0.539062 0.921875 -0.8125 L 0.921875 -2.671875 C 0.921875 -2.878906 0.894531 -3.03125 0.84375 -3.125 C 0.789062 -3.21875 0.710938 -3.265625 0.609375 -3.265625 C 0.492188 -3.265625 0.332031 -3.21875 0.125 -3.125 L 0.109375 -3.125 C 0.0859375 -3.125 0.0703125 -3.140625 0.0625 -3.171875 C 0.0507812 -3.210938 0.0507812 -3.234375 0.0625 -3.234375 L 1.453125 -3.921875 C 1.492188 -3.929688 1.515625 -3.9375 1.515625 -3.9375 C 1.585938 -3.9375 1.65625 -3.863281 1.71875 -3.71875 C 1.789062 -3.582031 1.832031 -3.390625 1.84375 -3.140625 C 2.300781 -3.679688 2.804688 -3.953125 3.359375 -3.953125 C 3.710938 -3.953125 3.992188 -3.835938 4.203125 -3.609375 C 4.410156 -3.378906 4.515625 -3.082031 4.515625 -2.71875 L 4.515625 -0.8125 C 4.515625 -0.539062 4.550781 -0.359375 4.625 -0.265625 C 4.707031 -0.171875 4.851562 -0.125 5.0625 -0.125 Z M 5.0625 -0.125 "/></g></g></g><g fill="#6b625d" fill-opacity="1"><g transform="translate(303.709553, 70.030285)"><g><path d="M 5 -0.640625 C 5.019531 -0.640625 5.035156 -0.625 5.046875 -0.59375 C 5.066406 -0.5625 5.070312 -0.539062 5.0625 -0.53125 L 3.6875 0.125 L 3.640625 0.140625 C 3.578125 0.140625 3.519531 0.078125 3.46875 -0.046875 C 3.425781 -0.171875 3.394531 -0.34375 3.375 -0.5625 C 2.882812 -0.101562 2.382812 0.125 1.875 0.125 C 1.582031 0.125 1.316406 0.0507812 1.078125 -0.09375 C 0.847656 -0.25 0.660156 -0.472656 0.515625 -0.765625 C 0.378906 -1.066406 0.3125 -1.414062 0.3125 -1.8125 C 0.3125 -2.3125 0.429688 -2.722656 0.671875 -3.046875 C 0.910156 -3.367188 1.203125 -3.601562 1.546875 -3.75 C 1.890625 -3.894531 2.238281 -3.96875 2.59375 -3.96875 C 2.84375 -3.96875 3.101562 -3.925781 3.375 -3.84375 L 3.375 -5.859375 C 3.375 -6.085938 3.347656 -6.25 3.296875 -6.34375 C 3.253906 -6.445312 3.179688 -6.5 3.078125 -6.5 C 2.992188 -6.5 2.875 -6.460938 2.71875 -6.390625 L 2.703125 -6.390625 C 2.671875 -6.390625 2.644531 -6.40625 2.625 -6.4375 C 2.613281 -6.476562 2.617188 -6.503906 2.640625 -6.515625 L 4.09375 -7.1875 L 4.140625 -7.203125 C 4.171875 -7.203125 4.203125 -7.1875 4.234375 -7.15625 C 4.273438 -7.125 4.296875 -7.097656 4.296875 -7.078125 L 4.296875 -1.15625 C 4.296875 -0.925781 4.316406 -0.765625 4.359375 -0.671875 C 4.410156 -0.578125 4.484375 -0.53125 4.578125 -0.53125 C 4.660156 -0.53125 4.796875 -0.566406 4.984375 -0.640625 Z M 2.421875 -0.34375 C 2.753906 -0.34375 3.070312 -0.484375 3.375 -0.765625 L 3.375 -3.234375 C 3.25 -3.398438 3.113281 -3.519531 2.96875 -3.59375 C 2.820312 -3.664062 2.644531 -3.703125 2.4375 -3.703125 C 2.082031 -3.703125 1.8125 -3.578125 1.625 -3.328125 C 1.4375 -3.085938 1.34375 -2.6875 1.34375 -2.125 C 1.34375 -1.570312 1.441406 -1.132812 1.640625 -0.8125 C 1.835938 -0.5 2.097656 -0.34375 2.421875 -0.34375 Z M 2.421875 -0.34375 "/></g></g></g><g fill="#6b625d" fill-opacity="1"><g transform="translate(308.407992, 70.030285)"><g><path d="M 2.359375 0.125 C 1.941406 0.125 1.578125 0.03125 1.265625 -0.15625 C 0.960938 -0.34375 0.726562 -0.597656 0.5625 -0.921875 C 0.394531 -1.242188 0.3125 -1.59375 0.3125 -1.96875 C 0.3125 -2.394531 0.421875 -2.757812 0.640625 -3.0625 C 0.859375 -3.363281 1.132812 -3.585938 1.46875 -3.734375 C 1.8125 -3.890625 2.164062 -3.96875 2.53125 -3.96875 C 2.9375 -3.96875 3.289062 -3.867188 3.59375 -3.671875 C 3.894531 -3.484375 4.128906 -3.226562 4.296875 -2.90625 C 4.460938 -2.59375 4.546875 -2.257812 4.546875 -1.90625 C 4.546875 -1.507812 4.441406 -1.15625 4.234375 -0.84375 C 4.035156 -0.539062 3.769531 -0.300781 3.4375 -0.125 C 3.101562 0.0390625 2.742188 0.125 2.359375 0.125 Z M 2.65625 -0.078125 C 2.914062 -0.078125 3.113281 -0.203125 3.25 -0.453125 C 3.382812 -0.710938 3.453125 -1.082031 3.453125 -1.5625 C 3.453125 -2.019531 3.390625 -2.414062 3.265625 -2.75 C 3.148438 -3.082031 2.992188 -3.332031 2.796875 -3.5 C 2.609375 -3.664062 2.40625 -3.75 2.1875 -3.75 C 1.65625 -3.75 1.390625 -3.273438 1.390625 -2.328125 C 1.390625 -1.890625 1.445312 -1.5 1.5625 -1.15625 C 1.675781 -0.8125 1.828125 -0.546875 2.015625 -0.359375 C 2.210938 -0.171875 2.425781 -0.078125 2.65625 -0.078125 Z M 2.65625 -0.078125 "/></g></g></g><g fill="#6b625d" fill-opacity="1"><g transform="translate(312.897824, 70.030285)"><g><path d="M 1.171875 -3.359375 C 1.171875 -3.171875 1.238281 -3.003906 1.375 -2.859375 C 1.507812 -2.722656 1.707031 -2.578125 1.96875 -2.421875 C 2.21875 -2.273438 2.40625 -2.160156 2.53125 -2.078125 C 2.65625 -1.992188 2.765625 -1.878906 2.859375 -1.734375 C 2.960938 -1.585938 3.015625 -1.40625 3.015625 -1.1875 C 3.015625 -0.96875 2.957031 -0.757812 2.84375 -0.5625 C 2.726562 -0.363281 2.554688 -0.203125 2.328125 -0.078125 C 2.109375 0.046875 1.84375 0.109375 1.53125 0.109375 C 1.164062 0.109375 0.820312 0.0195312 0.5 -0.15625 C 0.457031 -0.195312 0.4375 -0.238281 0.4375 -0.28125 L 0.421875 -1.265625 C 0.421875 -1.285156 0.4375 -1.296875 0.46875 -1.296875 C 0.507812 -1.296875 0.53125 -1.289062 0.53125 -1.28125 C 0.644531 -0.945312 0.820312 -0.664062 1.0625 -0.4375 C 1.3125 -0.207031 1.5625 -0.09375 1.8125 -0.09375 C 1.945312 -0.09375 2.054688 -0.132812 2.140625 -0.21875 C 2.222656 -0.300781 2.265625 -0.425781 2.265625 -0.59375 C 2.265625 -0.84375 2.191406 -1.035156 2.046875 -1.171875 C 1.910156 -1.316406 1.707031 -1.46875 1.4375 -1.625 C 1.207031 -1.75 1.03125 -1.847656 0.90625 -1.921875 C 0.789062 -2.003906 0.6875 -2.117188 0.59375 -2.265625 C 0.5 -2.410156 0.453125 -2.585938 0.453125 -2.796875 C 0.453125 -3.191406 0.59375 -3.476562 0.875 -3.65625 C 1.15625 -3.84375 1.492188 -3.9375 1.890625 -3.9375 C 2.046875 -3.9375 2.1875 -3.925781 2.3125 -3.90625 C 2.4375 -3.882812 2.570312 -3.84375 2.71875 -3.78125 C 2.78125 -3.757812 2.8125 -3.722656 2.8125 -3.671875 C 2.8125 -3.503906 2.804688 -3.378906 2.796875 -3.296875 L 2.796875 -2.796875 C 2.796875 -2.773438 2.773438 -2.765625 2.734375 -2.765625 C 2.691406 -2.765625 2.671875 -2.773438 2.671875 -2.796875 C 2.671875 -2.921875 2.617188 -3.054688 2.515625 -3.203125 C 2.410156 -3.347656 2.269531 -3.472656 2.09375 -3.578125 C 1.925781 -3.691406 1.753906 -3.75 1.578125 -3.75 C 1.304688 -3.75 1.171875 -3.617188 1.171875 -3.359375 Z M 1.171875 -3.359375 "/></g></g></g></svg>